<?xml version="1.0" encoding="UTF-8" standalone="no"?>
<!DOCTYPE svg PUBLIC "-//W3C//DTD SVG 1.1//EN" "http://www.w3.org/Graphics/SVG/1.1/DTD/svg11.dtd">
<svg width="100%" height="100%" viewBox="0 0 57344 1024" version="1.1" xmlns="http://www.w3.org/2000/svg" xmlns:xlink="http://www.w3.org/1999/xlink" xml:space="preserve" xmlns:serif="http://www.serif.com/" style="fill-rule:evenodd;clip-rule:evenodd;stroke-linejoin:round;stroke-miterlimit:2;">
    <g transform="matrix(1,0,0,1,-108.094,-121.875)">
        <g transform="matrix(960,0,0,960,46,919)">
            <path d="M0.25,-0.2L0.34,-0.2C0.34,-0.213 0.34,-0.224 0.341,-0.234C0.341,-0.244 0.343,-0.253 0.346,-0.262C0.348,-0.271 0.352,-0.28 0.358,-0.288C0.363,-0.297 0.371,-0.306 0.38,-0.315C0.396,-0.329 0.411,-0.343 0.427,-0.359C0.443,-0.375 0.457,-0.393 0.47,-0.411C0.482,-0.429 0.493,-0.449 0.501,-0.469C0.509,-0.49 0.513,-0.512 0.513,-0.536C0.513,-0.565 0.508,-0.591 0.499,-0.614C0.49,-0.637 0.476,-0.656 0.458,-0.672C0.44,-0.688 0.418,-0.7 0.392,-0.708C0.366,-0.717 0.337,-0.721 0.304,-0.721C0.275,-0.721 0.247,-0.717 0.221,-0.709C0.196,-0.701 0.174,-0.689 0.155,-0.674C0.136,-0.659 0.121,-0.64 0.11,-0.619C0.099,-0.597 0.094,-0.572 0.093,-0.545L0.184,-0.545C0.184,-0.562 0.187,-0.576 0.194,-0.589C0.201,-0.601 0.21,-0.611 0.221,-0.619C0.232,-0.627 0.245,-0.633 0.26,-0.636C0.274,-0.64 0.289,-0.642 0.304,-0.642C0.324,-0.642 0.342,-0.639 0.357,-0.634C0.372,-0.629 0.385,-0.621 0.395,-0.611C0.404,-0.602 0.411,-0.591 0.416,-0.578C0.42,-0.565 0.423,-0.55 0.423,-0.533C0.423,-0.516 0.42,-0.501 0.414,-0.486C0.407,-0.472 0.4,-0.458 0.39,-0.445C0.38,-0.431 0.37,-0.419 0.358,-0.407C0.347,-0.395 0.335,-0.383 0.324,-0.372C0.308,-0.357 0.295,-0.344 0.285,-0.333C0.275,-0.322 0.268,-0.311 0.263,-0.299C0.257,-0.287 0.254,-0.273 0.252,-0.258C0.251,-0.243 0.25,-0.224 0.25,-0.2ZM0.239,-0.047C0.239,-0.032 0.244,-0.02 0.253,-0.01C0.262,0 0.276,0.005 0.295,0.005C0.313,0.005 0.328,0 0.337,-0.01C0.347,-0.02 0.352,-0.032 0.352,-0.047C0.352,-0.063 0.347,-0.076 0.337,-0.086C0.328,-0.097 0.313,-0.102 0.295,-0.102C0.276,-0.102 0.262,-0.097 0.253,-0.086C0.244,-0.076 0.239,-0.063 0.239,-0.047Z" style="fill-rule:nonzero;"/>
        </g>
        <g transform="matrix(960,0,0,960,622.094,919)">
            <path d="M0.337,-0.23L0.337,-0.711L0.246,-0.711L0.246,-0.23L0.337,-0.23ZM0.237,-0.047C0.237,-0.032 0.242,-0.02 0.251,-0.01C0.26,0 0.274,0.005 0.293,0.005C0.312,0.005 0.326,0 0.335,-0.01C0.345,-0.02 0.35,-0.032 0.35,-0.047C0.35,-0.063 0.345,-0.076 0.335,-0.086C0.326,-0.097 0.312,-0.102 0.293,-0.102C0.274,-0.102 0.26,-0.097 0.251,-0.086C0.242,-0.076 0.237,-0.063 0.237,-0.047Z" style="fill-rule:nonzero;"/>
        </g>
        <g transform="matrix(960,0,0,960,1198.19,919)">
            <path d="M0.247,-0.697L0.247,-0.75L0.173,-0.75L0.173,-0.689L0.173,-0.516L0.236,-0.516L0.247,-0.697ZM0.421,-0.697L0.421,-0.75L0.348,-0.75L0.348,-0.689L0.348,-0.516L0.411,-0.516L0.421,-0.697Z" style="fill-rule:nonzero;"/>
        </g>
        <g transform="matrix(960,0,0,960,1774.28,919)">
            <path d="M0.345,-0.2L0.306,-0L0.376,-0L0.415,-0.2L0.538,-0.2L0.538,-0.267L0.428,-0.267L0.461,-0.44L0.575,-0.44L0.575,-0.508L0.475,-0.508L0.515,-0.711L0.445,-0.711L0.405,-0.508L0.276,-0.508L0.316,-0.711L0.246,-0.711L0.206,-0.508L0.067,-0.508L0.067,-0.44L0.193,-0.44L0.159,-0.267L0.03,-0.267L0.03,-0.2L0.146,-0.2L0.107,-0L0.177,-0L0.216,-0.2L0.345,-0.2ZM0.229,-0.267L0.263,-0.44L0.392,-0.44L0.358,-0.267L0.229,-0.267Z" style="fill-rule:nonzero;"/>
        </g>
        <g transform="matrix(960,0,0,960,2350.38,919)">
            <path d="M0.443,-0.183C0.443,-0.165 0.44,-0.149 0.433,-0.135C0.427,-0.121 0.418,-0.109 0.406,-0.099C0.395,-0.089 0.38,-0.081 0.363,-0.076C0.346,-0.071 0.327,-0.068 0.306,-0.068C0.29,-0.068 0.273,-0.071 0.257,-0.075C0.241,-0.08 0.226,-0.087 0.213,-0.098C0.2,-0.109 0.19,-0.123 0.182,-0.141C0.174,-0.159 0.169,-0.182 0.169,-0.209L0.079,-0.209C0.079,-0.173 0.084,-0.141 0.095,-0.115C0.106,-0.088 0.12,-0.067 0.138,-0.049C0.156,-0.032 0.177,-0.018 0.2,-0.009C0.223,-0 0.248,0.006 0.273,0.008L0.273,0.102L0.346,0.102L0.346,0.008C0.374,0.005 0.4,-0.001 0.423,-0.011C0.446,-0.021 0.466,-0.034 0.482,-0.05C0.499,-0.066 0.511,-0.085 0.52,-0.108C0.529,-0.13 0.534,-0.156 0.534,-0.184C0.534,-0.213 0.529,-0.238 0.52,-0.26C0.511,-0.282 0.498,-0.301 0.481,-0.318C0.465,-0.334 0.444,-0.349 0.419,-0.361C0.395,-0.374 0.368,-0.385 0.337,-0.395C0.312,-0.403 0.29,-0.412 0.273,-0.421C0.255,-0.43 0.241,-0.44 0.229,-0.45C0.218,-0.461 0.21,-0.472 0.205,-0.485C0.199,-0.498 0.197,-0.512 0.197,-0.528C0.197,-0.545 0.199,-0.56 0.204,-0.573C0.209,-0.587 0.215,-0.599 0.225,-0.608C0.234,-0.619 0.247,-0.627 0.262,-0.633C0.278,-0.639 0.296,-0.642 0.317,-0.642C0.336,-0.642 0.353,-0.638 0.368,-0.631C0.383,-0.623 0.396,-0.613 0.406,-0.6C0.416,-0.587 0.424,-0.571 0.429,-0.552C0.435,-0.534 0.438,-0.514 0.438,-0.492L0.527,-0.492C0.527,-0.53 0.522,-0.563 0.512,-0.592C0.502,-0.62 0.488,-0.645 0.47,-0.664C0.455,-0.679 0.438,-0.691 0.419,-0.7C0.399,-0.709 0.378,-0.715 0.354,-0.719L0.354,-0.826L0.281,-0.826L0.281,-0.719C0.255,-0.715 0.231,-0.709 0.209,-0.699C0.188,-0.689 0.169,-0.675 0.154,-0.659C0.139,-0.643 0.127,-0.623 0.119,-0.601C0.111,-0.579 0.106,-0.554 0.106,-0.527C0.106,-0.498 0.111,-0.472 0.121,-0.45C0.13,-0.428 0.144,-0.409 0.161,-0.392C0.178,-0.374 0.199,-0.36 0.224,-0.347C0.248,-0.335 0.275,-0.324 0.306,-0.314C0.33,-0.307 0.351,-0.298 0.368,-0.289C0.386,-0.28 0.4,-0.27 0.411,-0.259C0.422,-0.248 0.43,-0.236 0.435,-0.224C0.44,-0.211 0.443,-0.198 0.443,-0.183Z" style="fill-rule:nonzero;"/>
        </g>
        <g transform="matrix(960,0,0,960,2926.47,919)">
            <path d="M0.021,-0.583L0.021,-0.545C0.021,-0.527 0.024,-0.509 0.03,-0.493C0.036,-0.476 0.044,-0.462 0.055,-0.449C0.066,-0.437 0.08,-0.427 0.096,-0.419C0.113,-0.412 0.132,-0.408 0.153,-0.408C0.174,-0.408 0.193,-0.412 0.209,-0.419C0.225,-0.427 0.239,-0.437 0.25,-0.449C0.261,-0.462 0.269,-0.476 0.275,-0.493C0.28,-0.509 0.283,-0.527 0.283,-0.545L0.283,-0.583C0.283,-0.602 0.28,-0.619 0.275,-0.636C0.269,-0.653 0.261,-0.667 0.25,-0.68C0.239,-0.693 0.225,-0.703 0.209,-0.71C0.192,-0.718 0.173,-0.721 0.152,-0.721C0.131,-0.721 0.112,-0.718 0.096,-0.71C0.079,-0.703 0.066,-0.693 0.055,-0.68C0.044,-0.667 0.036,-0.653 0.03,-0.636C0.024,-0.619 0.021,-0.602 0.021,-0.583ZM0.089,-0.545L0.089,-0.583C0.089,-0.593 0.09,-0.603 0.092,-0.613C0.095,-0.622 0.098,-0.631 0.104,-0.638C0.108,-0.645 0.115,-0.651 0.123,-0.656C0.131,-0.66 0.14,-0.662 0.152,-0.662C0.164,-0.662 0.173,-0.66 0.181,-0.656C0.189,-0.651 0.196,-0.645 0.201,-0.638C0.206,-0.631 0.21,-0.622 0.212,-0.613C0.215,-0.603 0.216,-0.593 0.216,-0.583L0.216,-0.545C0.216,-0.535 0.215,-0.526 0.212,-0.516C0.21,-0.507 0.206,-0.499 0.201,-0.492C0.196,-0.484 0.19,-0.478 0.182,-0.474C0.174,-0.469 0.164,-0.467 0.153,-0.467C0.141,-0.467 0.131,-0.469 0.123,-0.474C0.115,-0.478 0.109,-0.484 0.104,-0.492C0.098,-0.499 0.095,-0.507 0.092,-0.516C0.09,-0.526 0.089,-0.535 0.089,-0.545ZM0.315,-0.165L0.315,-0.127C0.315,-0.108 0.318,-0.091 0.323,-0.074C0.329,-0.058 0.338,-0.043 0.349,-0.031C0.36,-0.018 0.373,-0.008 0.39,-0.001C0.406,0.007 0.425,0.01 0.447,0.01C0.468,0.01 0.487,0.007 0.503,-0.001C0.519,-0.008 0.532,-0.018 0.543,-0.031C0.555,-0.043 0.563,-0.058 0.569,-0.074C0.574,-0.091 0.577,-0.108 0.577,-0.127L0.577,-0.165C0.577,-0.184 0.574,-0.201 0.569,-0.218C0.563,-0.234 0.555,-0.249 0.543,-0.262C0.532,-0.274 0.519,-0.284 0.502,-0.292C0.486,-0.299 0.467,-0.303 0.446,-0.303C0.425,-0.303 0.406,-0.299 0.39,-0.292C0.373,-0.284 0.36,-0.274 0.349,-0.262C0.338,-0.249 0.329,-0.234 0.323,-0.218C0.318,-0.201 0.315,-0.184 0.315,-0.165ZM0.382,-0.127L0.382,-0.165C0.382,-0.175 0.383,-0.185 0.386,-0.194C0.388,-0.204 0.392,-0.212 0.397,-0.22C0.402,-0.227 0.408,-0.233 0.416,-0.237C0.424,-0.241 0.434,-0.244 0.446,-0.244C0.457,-0.244 0.467,-0.241 0.475,-0.237C0.483,-0.233 0.49,-0.227 0.495,-0.22C0.5,-0.212 0.504,-0.204 0.506,-0.194C0.508,-0.185 0.509,-0.175 0.509,-0.165L0.509,-0.127C0.509,-0.117 0.508,-0.107 0.506,-0.098C0.504,-0.088 0.5,-0.08 0.495,-0.073C0.49,-0.065 0.484,-0.059 0.476,-0.055C0.468,-0.051 0.458,-0.048 0.447,-0.048C0.435,-0.048 0.425,-0.051 0.417,-0.055C0.409,-0.059 0.402,-0.065 0.397,-0.073C0.392,-0.08 0.388,-0.088 0.386,-0.098C0.384,-0.107 0.382,-0.117 0.382,-0.127ZM0.194,-0.092L0.471,-0.598L0.417,-0.628L0.14,-0.122L0.194,-0.092Z" style="fill-rule:nonzero;"/>
        </g>
        <g transform="matrix(960,0,0,960,3502.56,919)">
            <path d="M0.052,-0.182C0.052,-0.154 0.057,-0.128 0.067,-0.105C0.077,-0.081 0.091,-0.061 0.109,-0.044C0.128,-0.027 0.15,-0.014 0.176,-0.004C0.202,0.005 0.231,0.01 0.263,0.01C0.283,0.01 0.302,0.008 0.321,0.003C0.34,-0.001 0.358,-0.007 0.375,-0.015C0.385,-0.02 0.396,-0.026 0.406,-0.032C0.415,-0.039 0.425,-0.046 0.434,-0.054L0.475,-0L0.583,-0L0.494,-0.116C0.517,-0.144 0.534,-0.177 0.546,-0.212C0.558,-0.248 0.564,-0.286 0.564,-0.328L0.482,-0.328C0.482,-0.299 0.479,-0.273 0.472,-0.248C0.466,-0.223 0.457,-0.201 0.445,-0.18L0.295,-0.376L0.341,-0.416C0.356,-0.426 0.369,-0.437 0.381,-0.448C0.394,-0.459 0.404,-0.471 0.414,-0.483C0.422,-0.496 0.429,-0.509 0.434,-0.523C0.439,-0.537 0.442,-0.553 0.442,-0.57C0.442,-0.59 0.438,-0.61 0.431,-0.628C0.424,-0.646 0.414,-0.662 0.401,-0.676C0.388,-0.69 0.371,-0.701 0.353,-0.709C0.334,-0.717 0.313,-0.721 0.29,-0.721C0.263,-0.721 0.239,-0.717 0.217,-0.71C0.196,-0.702 0.177,-0.692 0.162,-0.677C0.147,-0.663 0.135,-0.645 0.127,-0.623C0.118,-0.602 0.114,-0.577 0.114,-0.55C0.114,-0.537 0.116,-0.524 0.118,-0.512C0.121,-0.499 0.125,-0.487 0.13,-0.475C0.136,-0.46 0.144,-0.446 0.153,-0.43C0.163,-0.415 0.174,-0.4 0.186,-0.383L0.168,-0.371C0.152,-0.359 0.137,-0.346 0.124,-0.334C0.111,-0.322 0.099,-0.309 0.089,-0.295C0.078,-0.279 0.069,-0.261 0.062,-0.243C0.056,-0.224 0.052,-0.204 0.052,-0.182ZM0.263,-0.063C0.243,-0.063 0.226,-0.067 0.211,-0.073C0.196,-0.079 0.183,-0.087 0.173,-0.098C0.163,-0.109 0.156,-0.121 0.15,-0.136C0.145,-0.15 0.143,-0.166 0.143,-0.182C0.143,-0.188 0.143,-0.196 0.145,-0.205C0.147,-0.215 0.151,-0.225 0.156,-0.236C0.161,-0.247 0.169,-0.259 0.179,-0.272C0.189,-0.285 0.202,-0.298 0.219,-0.311L0.232,-0.323L0.39,-0.112C0.382,-0.106 0.374,-0.1 0.366,-0.094C0.358,-0.089 0.349,-0.084 0.34,-0.081C0.328,-0.075 0.316,-0.071 0.303,-0.068C0.29,-0.065 0.277,-0.063 0.263,-0.063ZM0.205,-0.551C0.205,-0.564 0.207,-0.576 0.21,-0.588C0.214,-0.599 0.219,-0.609 0.227,-0.618C0.233,-0.627 0.242,-0.634 0.253,-0.639C0.263,-0.644 0.276,-0.647 0.29,-0.647C0.3,-0.647 0.31,-0.645 0.318,-0.64C0.327,-0.636 0.334,-0.63 0.34,-0.624C0.346,-0.616 0.351,-0.608 0.354,-0.599C0.357,-0.59 0.358,-0.58 0.358,-0.57C0.358,-0.563 0.358,-0.555 0.356,-0.547C0.355,-0.54 0.352,-0.532 0.349,-0.524C0.345,-0.517 0.34,-0.509 0.333,-0.501C0.327,-0.494 0.319,-0.487 0.309,-0.48L0.251,-0.435C0.243,-0.446 0.236,-0.458 0.23,-0.469C0.224,-0.48 0.219,-0.491 0.215,-0.501C0.212,-0.51 0.209,-0.518 0.208,-0.526C0.206,-0.534 0.205,-0.543 0.205,-0.551Z" style="fill-rule:nonzero;"/>
        </g>
        <g transform="matrix(960,0,0,960,4078.66,919)">
            <path d="M0.319,-0.696L0.319,-0.75L0.242,-0.75L0.242,-0.688L0.241,-0.516L0.309,-0.516L0.319,-0.696Z" style="fill-rule:nonzero;"/>
        </g>
        <g transform="matrix(960,0,0,960,4654.75,919)">
            <path d="M0.174,-0.289L0.174,-0.284C0.174,-0.237 0.178,-0.193 0.185,-0.152C0.193,-0.111 0.202,-0.073 0.215,-0.039C0.227,-0.003 0.241,0.029 0.257,0.057C0.273,0.086 0.29,0.112 0.308,0.134C0.326,0.157 0.344,0.176 0.362,0.192C0.38,0.208 0.397,0.22 0.413,0.229L0.432,0.174C0.419,0.164 0.406,0.151 0.392,0.135C0.379,0.12 0.366,0.103 0.354,0.083C0.342,0.063 0.33,0.04 0.319,0.014C0.308,-0.012 0.299,-0.04 0.29,-0.07C0.282,-0.1 0.276,-0.133 0.271,-0.168C0.267,-0.204 0.265,-0.242 0.265,-0.283L0.265,-0.29C0.265,-0.332 0.267,-0.371 0.272,-0.408C0.277,-0.445 0.284,-0.479 0.292,-0.509C0.302,-0.543 0.313,-0.574 0.327,-0.603C0.34,-0.631 0.355,-0.656 0.37,-0.677C0.38,-0.691 0.39,-0.703 0.401,-0.714C0.411,-0.725 0.422,-0.735 0.432,-0.743L0.413,-0.802C0.397,-0.793 0.38,-0.781 0.362,-0.765C0.344,-0.749 0.326,-0.729 0.309,-0.707C0.291,-0.685 0.274,-0.659 0.258,-0.63C0.241,-0.601 0.227,-0.569 0.215,-0.534C0.202,-0.499 0.193,-0.461 0.185,-0.42C0.178,-0.379 0.174,-0.335 0.174,-0.289Z" style="fill-rule:nonzero;"/>
        </g>
        <g transform="matrix(960,0,0,960,5230.84,919)">
            <path d="M0.415,-0.284L0.415,-0.289C0.415,-0.338 0.411,-0.383 0.403,-0.423C0.395,-0.463 0.386,-0.5 0.374,-0.534C0.362,-0.57 0.348,-0.602 0.332,-0.63C0.316,-0.658 0.299,-0.684 0.281,-0.707C0.263,-0.729 0.245,-0.749 0.227,-0.765C0.209,-0.781 0.192,-0.793 0.175,-0.802L0.156,-0.747C0.167,-0.738 0.178,-0.728 0.189,-0.715C0.201,-0.703 0.212,-0.688 0.223,-0.671C0.237,-0.65 0.25,-0.625 0.264,-0.597C0.277,-0.568 0.288,-0.536 0.298,-0.5C0.304,-0.475 0.31,-0.445 0.316,-0.409C0.321,-0.373 0.324,-0.333 0.324,-0.29L0.324,-0.283C0.324,-0.244 0.322,-0.208 0.318,-0.174C0.314,-0.14 0.308,-0.108 0.3,-0.079C0.293,-0.047 0.284,-0.018 0.273,0.009C0.261,0.035 0.25,0.059 0.238,0.08C0.225,0.101 0.212,0.119 0.198,0.135C0.184,0.151 0.17,0.164 0.156,0.174L0.175,0.229C0.192,0.22 0.209,0.208 0.227,0.192C0.245,0.176 0.263,0.157 0.281,0.134C0.298,0.112 0.315,0.086 0.331,0.057C0.347,0.029 0.362,-0.003 0.374,-0.039C0.386,-0.073 0.396,-0.111 0.404,-0.152C0.411,-0.193 0.415,-0.237 0.415,-0.284Z" style="fill-rule:nonzero;"/>
        </g>
        <g transform="matrix(960,0,0,960,5806.94,919)">
            <path d="M0.262,-0.447L0.135,-0.287L0.206,-0.235L0.31,-0.408L0.414,-0.231L0.485,-0.285L0.36,-0.443L0.547,-0.489L0.521,-0.576L0.343,-0.502L0.357,-0.711L0.271,-0.711L0.283,-0.505L0.104,-0.579L0.078,-0.494L0.262,-0.447Z" style="fill-rule:nonzero;"/>
        </g>
        <g transform="matrix(960,0,0,960,6383.03,919)">
            <path d="M0.347,-0.381L0.347,-0.589L0.256,-0.589L0.256,-0.381L0.058,-0.381L0.058,-0.292L0.256,-0.292L0.256,-0.071L0.347,-0.071L0.347,-0.292L0.545,-0.292L0.545,-0.381L0.347,-0.381Z" style="fill-rule:nonzero;"/>
        </g>
        <g transform="matrix(960,0,0,960,6959.12,919)">
            <path d="M0.314,-0.021L0.314,-0.107L0.216,-0.107L0.216,-0.02C0.216,0.008 0.213,0.035 0.206,0.061C0.2,0.086 0.188,0.111 0.173,0.133L0.229,0.164C0.255,0.141 0.276,0.112 0.291,0.079C0.306,0.045 0.314,0.012 0.314,-0.021Z" style="fill-rule:nonzero;"/>
        </g>
        <g transform="matrix(960,0,0,960,7535.22,919)">
            <rect x="0.106" y="-0.348" width="0.374" height="0.074" style="fill-rule:nonzero;"/>
        </g>
        <g transform="matrix(960,0,0,960,8111.31,919)">
            <path d="M0.242,-0.059C0.242,-0.04 0.248,-0.024 0.26,-0.01C0.272,0.003 0.29,0.009 0.313,0.009C0.336,0.009 0.354,0.003 0.366,-0.01C0.379,-0.023 0.385,-0.039 0.385,-0.059C0.385,-0.078 0.379,-0.095 0.366,-0.108C0.354,-0.122 0.336,-0.128 0.313,-0.128C0.289,-0.128 0.271,-0.122 0.26,-0.108C0.248,-0.094 0.242,-0.078 0.242,-0.059Z" style="fill-rule:nonzero;"/>
        </g>
        <g transform="matrix(960,0,0,960,8687.41,919)">
            <path d="M0.204,0.061L0.5,-0.711L0.42,-0.711L0.123,0.061L0.204,0.061Z" style="fill-rule:nonzero;"/>
        </g>
        <g transform="matrix(960,0,0,960,9263.5,919)">
            <path d="M0.531,-0.272L0.531,-0.438C0.531,-0.484 0.526,-0.524 0.516,-0.559C0.505,-0.594 0.49,-0.623 0.471,-0.647C0.451,-0.672 0.427,-0.69 0.398,-0.702C0.37,-0.715 0.337,-0.721 0.301,-0.721C0.265,-0.721 0.232,-0.715 0.204,-0.702C0.175,-0.69 0.151,-0.672 0.132,-0.647C0.112,-0.623 0.097,-0.594 0.086,-0.559C0.076,-0.524 0.071,-0.484 0.071,-0.438L0.071,-0.272C0.071,-0.227 0.076,-0.187 0.086,-0.152C0.097,-0.117 0.112,-0.087 0.132,-0.063C0.152,-0.039 0.176,-0.021 0.205,-0.009C0.233,0.004 0.266,0.01 0.302,0.01C0.338,0.01 0.371,0.004 0.399,-0.009C0.427,-0.021 0.451,-0.039 0.471,-0.063C0.49,-0.087 0.505,-0.117 0.516,-0.152C0.526,-0.187 0.531,-0.227 0.531,-0.272ZM0.162,-0.29L0.162,-0.458C0.162,-0.492 0.165,-0.521 0.172,-0.546C0.178,-0.571 0.188,-0.592 0.202,-0.608C0.214,-0.621 0.227,-0.63 0.244,-0.637C0.26,-0.644 0.279,-0.647 0.301,-0.647C0.322,-0.647 0.341,-0.644 0.357,-0.638C0.373,-0.632 0.386,-0.622 0.397,-0.61C0.409,-0.598 0.418,-0.583 0.425,-0.565C0.431,-0.547 0.436,-0.526 0.438,-0.502L0.162,-0.29ZM0.44,-0.253C0.44,-0.218 0.437,-0.188 0.43,-0.162C0.423,-0.136 0.412,-0.116 0.397,-0.1C0.386,-0.088 0.372,-0.079 0.356,-0.073C0.34,-0.067 0.322,-0.063 0.302,-0.063C0.282,-0.063 0.265,-0.066 0.249,-0.072C0.233,-0.078 0.22,-0.086 0.209,-0.097C0.197,-0.109 0.187,-0.124 0.18,-0.142C0.172,-0.16 0.167,-0.181 0.164,-0.205L0.44,-0.416L0.44,-0.253Z" style="fill-rule:nonzero;"/>
        </g>
        <g transform="matrix(960,0,0,960,9839.59,919)">
            <path d="M0.378,-0L0.378,-0.711L0.371,-0.711L0.102,-0.607L0.102,-0.525L0.288,-0.596L0.288,-0L0.378,-0Z" style="fill-rule:nonzero;"/>
        </g>
        <g transform="matrix(960,0,0,960,10415.7,919)">
            <path d="M0.521,-0L0.521,-0.074L0.164,-0.074L0.355,-0.281C0.373,-0.3 0.39,-0.32 0.406,-0.34C0.422,-0.359 0.436,-0.379 0.449,-0.399C0.461,-0.42 0.47,-0.44 0.478,-0.461C0.485,-0.481 0.488,-0.502 0.488,-0.523C0.488,-0.552 0.483,-0.578 0.473,-0.602C0.463,-0.626 0.449,-0.647 0.431,-0.665C0.412,-0.682 0.389,-0.696 0.363,-0.706C0.336,-0.716 0.306,-0.721 0.272,-0.721C0.236,-0.721 0.203,-0.715 0.175,-0.703C0.146,-0.691 0.122,-0.676 0.103,-0.656C0.083,-0.636 0.068,-0.613 0.057,-0.586C0.047,-0.56 0.042,-0.531 0.042,-0.501L0.132,-0.501C0.132,-0.524 0.135,-0.544 0.141,-0.562C0.147,-0.579 0.155,-0.595 0.167,-0.607C0.178,-0.62 0.193,-0.629 0.21,-0.636C0.228,-0.643 0.248,-0.646 0.272,-0.646C0.292,-0.646 0.309,-0.643 0.324,-0.636C0.34,-0.63 0.353,-0.621 0.364,-0.609C0.375,-0.598 0.383,-0.585 0.389,-0.569C0.395,-0.554 0.397,-0.537 0.397,-0.52C0.397,-0.505 0.396,-0.491 0.392,-0.478C0.389,-0.464 0.382,-0.45 0.374,-0.435C0.366,-0.42 0.354,-0.403 0.34,-0.385C0.326,-0.367 0.309,-0.347 0.288,-0.324L0.055,-0.065L0.055,-0L0.521,-0Z" style="fill-rule:nonzero;"/>
        </g>
        <g transform="matrix(960,0,0,960,10991.8,919)">
            <path d="M0.19,-0.399L0.19,-0.326L0.255,-0.326C0.277,-0.326 0.298,-0.323 0.317,-0.318C0.335,-0.313 0.351,-0.305 0.365,-0.294C0.378,-0.283 0.388,-0.27 0.395,-0.254C0.403,-0.238 0.406,-0.218 0.406,-0.196C0.406,-0.174 0.403,-0.154 0.397,-0.138C0.39,-0.122 0.381,-0.108 0.37,-0.097C0.358,-0.086 0.344,-0.077 0.327,-0.072C0.311,-0.067 0.292,-0.064 0.271,-0.064C0.251,-0.064 0.232,-0.067 0.216,-0.073C0.199,-0.079 0.185,-0.087 0.173,-0.098C0.161,-0.108 0.152,-0.121 0.146,-0.137C0.139,-0.152 0.136,-0.169 0.136,-0.188L0.046,-0.188C0.046,-0.156 0.052,-0.128 0.064,-0.104C0.076,-0.08 0.092,-0.059 0.112,-0.042C0.132,-0.025 0.156,-0.012 0.183,-0.003C0.211,0.005 0.24,0.01 0.271,0.01C0.303,0.01 0.333,0.005 0.361,-0.004C0.388,-0.013 0.412,-0.027 0.432,-0.045C0.452,-0.063 0.468,-0.084 0.479,-0.11C0.491,-0.136 0.497,-0.165 0.497,-0.198C0.497,-0.215 0.495,-0.231 0.491,-0.248C0.487,-0.264 0.481,-0.28 0.472,-0.295C0.462,-0.31 0.45,-0.323 0.434,-0.335C0.419,-0.347 0.4,-0.357 0.376,-0.365C0.396,-0.373 0.412,-0.383 0.426,-0.395C0.44,-0.407 0.451,-0.421 0.46,-0.435C0.469,-0.448 0.475,-0.462 0.479,-0.477C0.484,-0.492 0.486,-0.506 0.486,-0.52C0.486,-0.552 0.481,-0.581 0.47,-0.606C0.46,-0.632 0.445,-0.653 0.426,-0.669C0.407,-0.686 0.385,-0.699 0.358,-0.708C0.332,-0.716 0.303,-0.721 0.271,-0.721C0.238,-0.721 0.208,-0.716 0.181,-0.705C0.155,-0.695 0.132,-0.681 0.112,-0.664C0.093,-0.646 0.078,-0.625 0.068,-0.601C0.057,-0.577 0.052,-0.551 0.052,-0.524L0.143,-0.524C0.143,-0.543 0.146,-0.56 0.152,-0.575C0.158,-0.59 0.167,-0.603 0.178,-0.613C0.189,-0.624 0.203,-0.632 0.219,-0.638C0.234,-0.644 0.252,-0.646 0.271,-0.646C0.291,-0.646 0.309,-0.644 0.324,-0.639C0.339,-0.634 0.352,-0.626 0.363,-0.616C0.374,-0.606 0.382,-0.593 0.387,-0.577C0.393,-0.561 0.396,-0.543 0.396,-0.521C0.396,-0.504 0.392,-0.487 0.386,-0.472C0.38,-0.457 0.371,-0.444 0.359,-0.434C0.347,-0.423 0.333,-0.414 0.315,-0.408C0.298,-0.402 0.278,-0.399 0.255,-0.399L0.19,-0.399Z" style="fill-rule:nonzero;"/>
        </g>
        <g transform="matrix(960,0,0,960,11567.9,919)">
            <path d="M0.451,-0.239L0.451,-0.711L0.355,-0.711L0.037,-0.218L0.037,-0.165L0.361,-0.165L0.361,-0L0.451,-0L0.451,-0.165L0.55,-0.165L0.55,-0.239L0.451,-0.239ZM0.137,-0.239L0.346,-0.563L0.361,-0.591L0.361,-0.239L0.137,-0.239Z" style="fill-rule:nonzero;"/>
        </g>
        <g transform="matrix(960,0,0,960,12144,919)">
            <path d="M0.117,-0.356L0.189,-0.338C0.198,-0.345 0.205,-0.351 0.213,-0.357C0.221,-0.362 0.229,-0.367 0.238,-0.371C0.247,-0.375 0.256,-0.378 0.267,-0.38C0.278,-0.382 0.291,-0.383 0.306,-0.383C0.329,-0.383 0.349,-0.379 0.367,-0.371C0.384,-0.363 0.399,-0.352 0.411,-0.338C0.423,-0.324 0.432,-0.307 0.439,-0.288C0.445,-0.268 0.448,-0.248 0.448,-0.226C0.448,-0.201 0.445,-0.179 0.44,-0.159C0.434,-0.139 0.426,-0.122 0.415,-0.108C0.403,-0.094 0.389,-0.083 0.373,-0.075C0.356,-0.068 0.337,-0.064 0.315,-0.064C0.277,-0.064 0.246,-0.074 0.222,-0.095C0.198,-0.116 0.183,-0.147 0.177,-0.187L0.091,-0.187C0.095,-0.154 0.103,-0.125 0.115,-0.101C0.128,-0.076 0.145,-0.055 0.165,-0.039C0.185,-0.023 0.208,-0.011 0.233,-0.002C0.259,0.006 0.286,0.01 0.315,0.01C0.353,0.01 0.386,0.004 0.414,-0.008C0.442,-0.02 0.465,-0.036 0.484,-0.058C0.502,-0.078 0.516,-0.103 0.525,-0.132C0.534,-0.161 0.539,-0.193 0.539,-0.227C0.539,-0.262 0.534,-0.295 0.524,-0.324C0.514,-0.354 0.5,-0.379 0.482,-0.399C0.464,-0.42 0.442,-0.436 0.416,-0.447C0.389,-0.459 0.36,-0.464 0.327,-0.464C0.301,-0.464 0.279,-0.461 0.259,-0.455C0.24,-0.449 0.223,-0.442 0.209,-0.434L0.229,-0.623L0.518,-0.623L0.518,-0.711L0.153,-0.711L0.117,-0.356Z" style="fill-rule:nonzero;"/>
        </g>
        <g transform="matrix(960,0,0,960,12720.1,919)">
            <path d="M0.418,-0.711L0.41,-0.711C0.359,-0.711 0.314,-0.704 0.274,-0.69C0.234,-0.676 0.2,-0.655 0.172,-0.627C0.131,-0.586 0.104,-0.537 0.09,-0.48C0.076,-0.423 0.069,-0.364 0.069,-0.305L0.069,-0.263C0.069,-0.228 0.074,-0.194 0.084,-0.159C0.095,-0.125 0.111,-0.095 0.132,-0.069C0.151,-0.046 0.174,-0.027 0.202,-0.012C0.229,0.002 0.261,0.01 0.298,0.01C0.334,0.01 0.366,0.003 0.393,-0.009C0.421,-0.022 0.444,-0.039 0.462,-0.062C0.481,-0.083 0.495,-0.109 0.504,-0.138C0.513,-0.167 0.518,-0.199 0.518,-0.232C0.518,-0.261 0.514,-0.289 0.506,-0.317C0.499,-0.345 0.486,-0.37 0.47,-0.393C0.453,-0.415 0.432,-0.433 0.406,-0.446C0.381,-0.46 0.35,-0.466 0.314,-0.466C0.298,-0.466 0.283,-0.464 0.268,-0.461C0.253,-0.457 0.239,-0.452 0.227,-0.446C0.214,-0.439 0.201,-0.432 0.19,-0.423C0.179,-0.414 0.17,-0.405 0.161,-0.395C0.163,-0.426 0.169,-0.457 0.18,-0.486C0.191,-0.516 0.206,-0.542 0.227,-0.563C0.246,-0.583 0.271,-0.6 0.301,-0.612C0.331,-0.624 0.367,-0.63 0.41,-0.63L0.418,-0.63L0.418,-0.711ZM0.3,-0.391C0.322,-0.391 0.341,-0.387 0.357,-0.377C0.373,-0.368 0.387,-0.356 0.397,-0.341C0.408,-0.326 0.416,-0.308 0.421,-0.288C0.427,-0.269 0.429,-0.248 0.429,-0.228C0.429,-0.204 0.426,-0.182 0.421,-0.162C0.415,-0.142 0.407,-0.125 0.396,-0.111C0.384,-0.097 0.37,-0.085 0.354,-0.077C0.338,-0.069 0.319,-0.065 0.298,-0.065C0.28,-0.065 0.262,-0.069 0.246,-0.078C0.229,-0.087 0.214,-0.099 0.202,-0.116C0.189,-0.132 0.179,-0.153 0.171,-0.177C0.164,-0.201 0.16,-0.229 0.16,-0.26L0.16,-0.291C0.166,-0.306 0.173,-0.319 0.183,-0.332C0.192,-0.344 0.203,-0.354 0.215,-0.363C0.228,-0.372 0.241,-0.379 0.255,-0.384C0.27,-0.389 0.285,-0.391 0.3,-0.391Z" style="fill-rule:nonzero;"/>
        </g>
        <g transform="matrix(960,0,0,960,13296.2,919)">
            <path d="M0.535,-0.66L0.535,-0.711L0.055,-0.711L0.055,-0.632L0.439,-0.632L0.146,-0L0.241,-0L0.535,-0.66Z" style="fill-rule:nonzero;"/>
        </g>
        <g transform="matrix(960,0,0,960,13872.2,919)">
            <path d="M0.522,-0.525C0.522,-0.556 0.517,-0.584 0.506,-0.608C0.496,-0.632 0.481,-0.653 0.462,-0.669C0.443,-0.686 0.421,-0.699 0.395,-0.708C0.369,-0.716 0.341,-0.721 0.312,-0.721C0.281,-0.721 0.253,-0.716 0.228,-0.708C0.202,-0.699 0.18,-0.686 0.162,-0.669C0.144,-0.653 0.129,-0.632 0.119,-0.608C0.108,-0.584 0.103,-0.556 0.103,-0.525C0.103,-0.508 0.105,-0.491 0.11,-0.475C0.115,-0.459 0.122,-0.444 0.131,-0.431C0.14,-0.417 0.15,-0.405 0.163,-0.394C0.176,-0.383 0.19,-0.374 0.206,-0.366C0.187,-0.358 0.171,-0.349 0.156,-0.337C0.142,-0.325 0.129,-0.312 0.119,-0.297C0.108,-0.282 0.1,-0.266 0.095,-0.248C0.089,-0.231 0.086,-0.212 0.086,-0.192C0.086,-0.159 0.092,-0.131 0.104,-0.105C0.116,-0.08 0.132,-0.059 0.152,-0.042C0.173,-0.025 0.196,-0.012 0.224,-0.003C0.251,0.005 0.281,0.01 0.313,0.01C0.344,0.01 0.374,0.005 0.401,-0.004C0.428,-0.013 0.452,-0.026 0.473,-0.043C0.493,-0.06 0.509,-0.081 0.521,-0.106C0.533,-0.131 0.539,-0.16 0.539,-0.192C0.539,-0.212 0.536,-0.23 0.53,-0.248C0.524,-0.266 0.516,-0.282 0.506,-0.297C0.495,-0.312 0.482,-0.325 0.468,-0.337C0.453,-0.348 0.436,-0.358 0.418,-0.366C0.428,-0.371 0.438,-0.377 0.447,-0.383C0.456,-0.39 0.465,-0.397 0.472,-0.404C0.488,-0.42 0.5,-0.438 0.509,-0.459C0.518,-0.479 0.522,-0.502 0.522,-0.525ZM0.448,-0.194C0.448,-0.173 0.445,-0.155 0.438,-0.139C0.432,-0.123 0.422,-0.109 0.411,-0.098C0.399,-0.087 0.384,-0.079 0.368,-0.073C0.351,-0.067 0.333,-0.064 0.313,-0.064C0.292,-0.064 0.273,-0.067 0.257,-0.073C0.24,-0.079 0.226,-0.087 0.214,-0.098C0.202,-0.109 0.193,-0.123 0.187,-0.139C0.18,-0.155 0.177,-0.173 0.177,-0.194C0.177,-0.214 0.18,-0.232 0.187,-0.249C0.193,-0.265 0.202,-0.279 0.214,-0.292C0.226,-0.303 0.24,-0.312 0.256,-0.319C0.273,-0.325 0.292,-0.329 0.312,-0.329C0.332,-0.329 0.35,-0.325 0.367,-0.319C0.384,-0.312 0.398,-0.303 0.41,-0.292C0.422,-0.279 0.432,-0.265 0.438,-0.249C0.445,-0.232 0.448,-0.214 0.448,-0.194ZM0.432,-0.524C0.432,-0.506 0.429,-0.489 0.423,-0.474C0.417,-0.459 0.409,-0.446 0.398,-0.436C0.388,-0.425 0.375,-0.417 0.36,-0.411C0.346,-0.406 0.33,-0.403 0.313,-0.403C0.295,-0.403 0.279,-0.406 0.264,-0.411C0.25,-0.417 0.237,-0.425 0.227,-0.436C0.216,-0.446 0.208,-0.459 0.202,-0.474C0.197,-0.489 0.194,-0.505 0.194,-0.524C0.194,-0.542 0.197,-0.559 0.202,-0.574C0.208,-0.59 0.216,-0.603 0.227,-0.613C0.237,-0.624 0.249,-0.632 0.264,-0.638C0.278,-0.644 0.294,-0.646 0.312,-0.646C0.329,-0.646 0.345,-0.643 0.36,-0.637C0.375,-0.631 0.387,-0.623 0.398,-0.612C0.408,-0.601 0.417,-0.588 0.423,-0.573C0.429,-0.558 0.432,-0.542 0.432,-0.524Z" style="fill-rule:nonzero;"/>
        </g>
        <g transform="matrix(960,0,0,960,14448.3,919)">
            <path d="M0.182,-0.08L0.173,-0.08L0.173,0L0.182,0C0.241,0 0.29,-0.008 0.331,-0.024C0.372,-0.04 0.404,-0.061 0.427,-0.087C0.466,-0.13 0.491,-0.179 0.502,-0.235C0.514,-0.29 0.52,-0.345 0.52,-0.4L0.52,-0.433C0.52,-0.472 0.515,-0.511 0.504,-0.55C0.493,-0.588 0.477,-0.621 0.456,-0.647C0.437,-0.669 0.415,-0.687 0.388,-0.7C0.361,-0.714 0.329,-0.721 0.293,-0.721C0.257,-0.721 0.225,-0.714 0.197,-0.701C0.17,-0.688 0.147,-0.67 0.128,-0.648C0.11,-0.625 0.096,-0.599 0.087,-0.57C0.077,-0.54 0.073,-0.508 0.073,-0.475C0.073,-0.446 0.077,-0.417 0.084,-0.389C0.092,-0.361 0.104,-0.335 0.121,-0.313C0.138,-0.291 0.159,-0.272 0.184,-0.259C0.21,-0.245 0.24,-0.238 0.275,-0.238C0.294,-0.238 0.31,-0.24 0.326,-0.243C0.341,-0.247 0.355,-0.252 0.368,-0.259C0.381,-0.265 0.392,-0.273 0.402,-0.281C0.412,-0.29 0.421,-0.299 0.429,-0.309L0.429,-0.308C0.428,-0.278 0.423,-0.249 0.415,-0.221C0.407,-0.193 0.392,-0.167 0.37,-0.143C0.351,-0.123 0.327,-0.107 0.296,-0.096C0.266,-0.086 0.228,-0.08 0.182,-0.08ZM0.29,-0.313C0.268,-0.313 0.249,-0.317 0.233,-0.327C0.217,-0.337 0.204,-0.349 0.193,-0.365C0.183,-0.38 0.175,-0.398 0.169,-0.418C0.164,-0.438 0.162,-0.459 0.162,-0.479C0.162,-0.503 0.165,-0.525 0.17,-0.545C0.176,-0.566 0.185,-0.583 0.196,-0.598C0.207,-0.613 0.221,-0.624 0.237,-0.633C0.254,-0.641 0.272,-0.646 0.293,-0.646C0.312,-0.646 0.33,-0.641 0.346,-0.632C0.362,-0.623 0.377,-0.61 0.39,-0.593C0.402,-0.576 0.412,-0.555 0.419,-0.53C0.427,-0.505 0.43,-0.477 0.43,-0.445L0.43,-0.416C0.425,-0.401 0.417,-0.387 0.407,-0.374C0.398,-0.362 0.387,-0.351 0.375,-0.342C0.363,-0.332 0.349,-0.325 0.335,-0.32C0.32,-0.315 0.305,-0.313 0.29,-0.313Z" style="fill-rule:nonzero;"/>
        </g>
        <g transform="matrix(960,0,0,960,15024.4,919)">
            <path d="M0.267,-0.059C0.267,-0.04 0.273,-0.024 0.284,-0.01C0.296,0.003 0.314,0.009 0.337,0.009C0.361,0.009 0.378,0.003 0.391,-0.01C0.403,-0.023 0.409,-0.039 0.409,-0.059C0.409,-0.078 0.403,-0.095 0.391,-0.108C0.379,-0.122 0.361,-0.128 0.337,-0.128C0.314,-0.128 0.296,-0.122 0.284,-0.108C0.272,-0.094 0.267,-0.078 0.267,-0.059ZM0.267,-0.486C0.267,-0.467 0.273,-0.451 0.284,-0.438C0.296,-0.425 0.314,-0.418 0.337,-0.418C0.361,-0.418 0.378,-0.425 0.391,-0.438C0.403,-0.451 0.409,-0.467 0.409,-0.486C0.409,-0.506 0.403,-0.522 0.391,-0.536C0.379,-0.549 0.361,-0.556 0.337,-0.556C0.314,-0.556 0.296,-0.549 0.284,-0.536C0.272,-0.522 0.267,-0.506 0.267,-0.486Z" style="fill-rule:nonzero;"/>
        </g>
        <g transform="matrix(960,0,0,960,15600.5,919)">
            <path d="M0.262,-0.486C0.262,-0.467 0.268,-0.451 0.28,-0.438C0.292,-0.425 0.31,-0.418 0.333,-0.418C0.356,-0.418 0.374,-0.425 0.386,-0.438C0.399,-0.451 0.405,-0.467 0.405,-0.486C0.405,-0.506 0.399,-0.522 0.386,-0.536C0.374,-0.549 0.356,-0.556 0.333,-0.556C0.309,-0.556 0.292,-0.549 0.28,-0.536C0.268,-0.522 0.262,-0.506 0.262,-0.486ZM0.378,-0.021L0.378,-0.107L0.28,-0.107L0.28,-0.02C0.28,0.008 0.277,0.035 0.271,0.061C0.264,0.086 0.253,0.111 0.237,0.133L0.293,0.164C0.319,0.141 0.34,0.112 0.355,0.079C0.371,0.045 0.378,0.012 0.378,-0.021Z" style="fill-rule:nonzero;"/>
        </g>
        <g transform="matrix(960,0,0,960,16176.6,919)">
            <path d="M0.497,-0.096L0.497,-0.191L0.198,-0.307L0.172,-0.315L0.198,-0.324L0.497,-0.441L0.497,-0.537L0.083,-0.352L0.083,-0.281L0.497,-0.096Z" style="fill-rule:nonzero;"/>
        </g>
        <g transform="matrix(960,0,0,960,16752.7,919)">
            <path d="M0.521,-0.381L0.521,-0.459L0.084,-0.459L0.084,-0.381L0.521,-0.381ZM0.521,-0.178L0.521,-0.256L0.084,-0.256L0.084,-0.178L0.521,-0.178Z" style="fill-rule:nonzero;"/>
        </g>
        <g transform="matrix(960,0,0,960,17328.8,919)">
            <path d="M0.087,-0.096L0.518,-0.281L0.518,-0.353L0.087,-0.537L0.087,-0.444L0.403,-0.327L0.432,-0.317L0.403,-0.309L0.087,-0.19L0.087,-0.096Z" style="fill-rule:nonzero;"/>
        </g>
        <g transform="matrix(960,0,0,960,17904.9,919)">
            <path d="M0.25,-0.2L0.34,-0.2C0.34,-0.213 0.34,-0.224 0.341,-0.234C0.341,-0.244 0.343,-0.253 0.346,-0.262C0.348,-0.271 0.352,-0.28 0.358,-0.288C0.363,-0.297 0.371,-0.306 0.38,-0.315C0.396,-0.329 0.411,-0.343 0.427,-0.359C0.443,-0.375 0.457,-0.393 0.47,-0.411C0.482,-0.429 0.493,-0.449 0.501,-0.469C0.509,-0.49 0.513,-0.512 0.513,-0.536C0.513,-0.565 0.508,-0.591 0.499,-0.614C0.49,-0.637 0.476,-0.656 0.458,-0.672C0.44,-0.688 0.418,-0.7 0.392,-0.708C0.366,-0.717 0.337,-0.721 0.304,-0.721C0.275,-0.721 0.247,-0.717 0.221,-0.709C0.196,-0.701 0.174,-0.689 0.155,-0.674C0.136,-0.659 0.121,-0.64 0.11,-0.619C0.099,-0.597 0.094,-0.572 0.093,-0.545L0.184,-0.545C0.184,-0.562 0.187,-0.576 0.194,-0.589C0.201,-0.601 0.21,-0.611 0.221,-0.619C0.232,-0.627 0.245,-0.633 0.26,-0.636C0.274,-0.64 0.289,-0.642 0.304,-0.642C0.324,-0.642 0.342,-0.639 0.357,-0.634C0.372,-0.629 0.385,-0.621 0.395,-0.611C0.404,-0.602 0.411,-0.591 0.416,-0.578C0.42,-0.565 0.423,-0.55 0.423,-0.533C0.423,-0.516 0.42,-0.501 0.414,-0.486C0.407,-0.472 0.4,-0.458 0.39,-0.445C0.38,-0.431 0.37,-0.419 0.358,-0.407C0.347,-0.395 0.335,-0.383 0.324,-0.372C0.308,-0.357 0.295,-0.344 0.285,-0.333C0.275,-0.322 0.268,-0.311 0.263,-0.299C0.257,-0.287 0.254,-0.273 0.252,-0.258C0.251,-0.243 0.25,-0.224 0.25,-0.2ZM0.239,-0.047C0.239,-0.032 0.244,-0.02 0.253,-0.01C0.262,0 0.276,0.005 0.295,0.005C0.313,0.005 0.328,0 0.337,-0.01C0.347,-0.02 0.352,-0.032 0.352,-0.047C0.352,-0.063 0.347,-0.076 0.337,-0.086C0.328,-0.097 0.313,-0.102 0.295,-0.102C0.276,-0.102 0.262,-0.097 0.253,-0.086C0.244,-0.076 0.239,-0.063 0.239,-0.047Z" style="fill-rule:nonzero;"/>
        </g>
        <g transform="matrix(960,0,0,960,18481,919)">
            <path d="M0.566,-0.385C0.567,-0.434 0.563,-0.479 0.552,-0.519C0.542,-0.559 0.526,-0.594 0.505,-0.623C0.484,-0.651 0.458,-0.673 0.427,-0.689C0.396,-0.704 0.361,-0.712 0.321,-0.712C0.281,-0.712 0.243,-0.703 0.21,-0.684C0.176,-0.666 0.147,-0.64 0.122,-0.607C0.096,-0.573 0.075,-0.533 0.06,-0.486C0.044,-0.439 0.036,-0.389 0.034,-0.337C0.032,-0.288 0.036,-0.242 0.046,-0.2C0.055,-0.158 0.071,-0.122 0.093,-0.092C0.114,-0.062 0.142,-0.038 0.177,-0.021C0.211,-0.004 0.252,0.004 0.3,0.004C0.31,0.004 0.321,0.003 0.333,0.002C0.345,0 0.356,-0.002 0.368,-0.005C0.379,-0.008 0.39,-0.012 0.4,-0.017C0.411,-0.021 0.42,-0.027 0.428,-0.033L0.413,-0.09C0.405,-0.085 0.397,-0.081 0.389,-0.077C0.38,-0.073 0.371,-0.069 0.361,-0.067C0.351,-0.064 0.341,-0.062 0.331,-0.06C0.321,-0.059 0.311,-0.058 0.301,-0.058C0.265,-0.058 0.233,-0.064 0.206,-0.077C0.179,-0.089 0.157,-0.108 0.14,-0.132C0.123,-0.156 0.11,-0.185 0.103,-0.219C0.095,-0.254 0.092,-0.293 0.093,-0.337C0.095,-0.385 0.101,-0.428 0.113,-0.468C0.125,-0.507 0.142,-0.541 0.164,-0.569C0.185,-0.595 0.208,-0.615 0.234,-0.629C0.26,-0.643 0.288,-0.65 0.32,-0.65C0.351,-0.65 0.379,-0.644 0.403,-0.632C0.428,-0.62 0.448,-0.603 0.465,-0.58C0.482,-0.557 0.494,-0.529 0.502,-0.497C0.511,-0.464 0.514,-0.427 0.513,-0.385C0.512,-0.361 0.511,-0.339 0.507,-0.318C0.504,-0.297 0.499,-0.278 0.493,-0.263C0.487,-0.247 0.479,-0.234 0.47,-0.225C0.461,-0.216 0.45,-0.211 0.438,-0.211C0.433,-0.211 0.428,-0.212 0.423,-0.213C0.419,-0.215 0.415,-0.218 0.412,-0.223C0.409,-0.228 0.406,-0.234 0.405,-0.242C0.403,-0.251 0.403,-0.262 0.404,-0.275L0.425,-0.521C0.417,-0.533 0.405,-0.543 0.391,-0.552C0.377,-0.56 0.359,-0.564 0.337,-0.564C0.314,-0.564 0.293,-0.559 0.273,-0.548C0.254,-0.537 0.237,-0.522 0.223,-0.501C0.208,-0.481 0.197,-0.456 0.188,-0.427C0.178,-0.398 0.172,-0.365 0.169,-0.329C0.167,-0.304 0.168,-0.28 0.171,-0.259C0.173,-0.238 0.179,-0.22 0.186,-0.205C0.193,-0.189 0.203,-0.177 0.214,-0.169C0.226,-0.16 0.24,-0.156 0.256,-0.156C0.267,-0.156 0.278,-0.158 0.288,-0.161C0.298,-0.164 0.307,-0.169 0.316,-0.175C0.323,-0.18 0.33,-0.186 0.336,-0.193C0.343,-0.2 0.348,-0.207 0.354,-0.215C0.356,-0.208 0.359,-0.2 0.362,-0.194C0.366,-0.188 0.37,-0.182 0.375,-0.177C0.382,-0.17 0.39,-0.165 0.399,-0.162C0.409,-0.158 0.419,-0.156 0.431,-0.156C0.455,-0.156 0.476,-0.163 0.492,-0.177C0.509,-0.191 0.522,-0.209 0.533,-0.231C0.544,-0.254 0.551,-0.278 0.557,-0.305C0.562,-0.333 0.565,-0.359 0.566,-0.385ZM0.229,-0.329C0.232,-0.356 0.236,-0.38 0.241,-0.402C0.247,-0.423 0.254,-0.442 0.263,-0.457C0.271,-0.472 0.282,-0.484 0.295,-0.492C0.308,-0.5 0.323,-0.504 0.34,-0.504C0.345,-0.504 0.35,-0.504 0.355,-0.503C0.359,-0.502 0.364,-0.5 0.369,-0.498L0.35,-0.286L0.35,-0.281C0.346,-0.273 0.342,-0.266 0.338,-0.26C0.334,-0.254 0.329,-0.249 0.325,-0.244C0.317,-0.237 0.309,-0.232 0.3,-0.229C0.291,-0.225 0.282,-0.224 0.272,-0.224C0.264,-0.224 0.257,-0.226 0.252,-0.231C0.246,-0.235 0.241,-0.242 0.238,-0.251C0.234,-0.26 0.232,-0.271 0.23,-0.284C0.229,-0.298 0.229,-0.313 0.229,-0.329Z" style="fill-rule:nonzero;"/>
        </g>
        <g transform="matrix(960,0,0,960,19057.1,919)">
            <path d="M0.424,-0.184L0.48,-0L0.57,-0L0.345,-0.711L0.269,-0.711L0.04,-0L0.13,-0L0.187,-0.184L0.424,-0.184ZM0.211,-0.263L0.307,-0.571L0.4,-0.263L0.211,-0.263Z" style="fill-rule:nonzero;"/>
        </g>
        <g transform="matrix(960,0,0,960,19633.2,919)">
            <path d="M0.084,-0L0.312,-0C0.342,-0 0.371,-0.005 0.4,-0.014C0.428,-0.023 0.453,-0.036 0.475,-0.054C0.497,-0.071 0.514,-0.092 0.527,-0.117C0.54,-0.143 0.547,-0.172 0.546,-0.205C0.546,-0.226 0.543,-0.246 0.537,-0.264C0.531,-0.282 0.522,-0.299 0.51,-0.313C0.5,-0.327 0.486,-0.339 0.469,-0.35C0.453,-0.361 0.435,-0.369 0.417,-0.373L0.417,-0.375C0.435,-0.382 0.449,-0.39 0.462,-0.398C0.474,-0.407 0.485,-0.417 0.495,-0.43C0.505,-0.442 0.513,-0.455 0.518,-0.471C0.524,-0.486 0.527,-0.503 0.527,-0.521C0.528,-0.555 0.521,-0.583 0.508,-0.607C0.495,-0.631 0.478,-0.65 0.456,-0.666C0.434,-0.681 0.409,-0.692 0.381,-0.699C0.353,-0.707 0.325,-0.711 0.295,-0.711L0.084,-0.711L0.084,-0ZM0.175,-0.333L0.319,-0.333C0.338,-0.332 0.356,-0.329 0.373,-0.323C0.389,-0.317 0.404,-0.309 0.416,-0.298C0.428,-0.287 0.438,-0.273 0.445,-0.258C0.452,-0.242 0.455,-0.224 0.455,-0.204C0.455,-0.184 0.451,-0.167 0.444,-0.151C0.436,-0.135 0.426,-0.122 0.413,-0.111C0.4,-0.101 0.385,-0.092 0.368,-0.086C0.351,-0.08 0.333,-0.077 0.314,-0.077L0.175,-0.077L0.175,-0.333ZM0.175,-0.408L0.175,-0.634L0.298,-0.634C0.316,-0.633 0.333,-0.631 0.35,-0.627C0.367,-0.623 0.382,-0.616 0.395,-0.607C0.407,-0.598 0.417,-0.587 0.425,-0.573C0.433,-0.559 0.437,-0.542 0.437,-0.522C0.437,-0.503 0.433,-0.487 0.425,-0.473C0.417,-0.459 0.407,-0.447 0.394,-0.438C0.381,-0.428 0.367,-0.421 0.351,-0.416C0.334,-0.411 0.318,-0.408 0.301,-0.408L0.175,-0.408Z" style="fill-rule:nonzero;"/>
        </g>
        <g transform="matrix(960,0,0,960,20209.3,919)">
            <path d="M0.545,-0.214L0.455,-0.214C0.452,-0.192 0.447,-0.172 0.44,-0.154C0.433,-0.136 0.423,-0.12 0.411,-0.106C0.399,-0.093 0.384,-0.082 0.367,-0.075C0.35,-0.067 0.329,-0.063 0.305,-0.063C0.283,-0.063 0.264,-0.067 0.248,-0.074C0.232,-0.081 0.218,-0.091 0.206,-0.103C0.194,-0.115 0.184,-0.129 0.176,-0.145C0.168,-0.161 0.162,-0.178 0.157,-0.196C0.152,-0.214 0.148,-0.233 0.146,-0.251C0.144,-0.27 0.143,-0.288 0.143,-0.306L0.143,-0.406C0.143,-0.423 0.144,-0.441 0.146,-0.46C0.148,-0.479 0.152,-0.497 0.157,-0.515C0.162,-0.533 0.168,-0.55 0.176,-0.566C0.184,-0.582 0.194,-0.596 0.206,-0.608C0.218,-0.62 0.232,-0.629 0.248,-0.636C0.265,-0.643 0.284,-0.647 0.305,-0.647C0.329,-0.647 0.35,-0.643 0.367,-0.635C0.384,-0.627 0.399,-0.616 0.411,-0.602C0.423,-0.588 0.433,-0.572 0.44,-0.553C0.447,-0.535 0.452,-0.515 0.455,-0.493L0.545,-0.493C0.542,-0.527 0.533,-0.558 0.521,-0.586C0.509,-0.614 0.493,-0.638 0.473,-0.658C0.452,-0.678 0.428,-0.693 0.4,-0.704C0.372,-0.715 0.341,-0.721 0.305,-0.721C0.276,-0.721 0.249,-0.717 0.225,-0.708C0.201,-0.7 0.18,-0.688 0.162,-0.674C0.143,-0.659 0.127,-0.642 0.113,-0.622C0.1,-0.602 0.088,-0.58 0.08,-0.557C0.07,-0.533 0.064,-0.509 0.059,-0.483C0.055,-0.457 0.053,-0.431 0.052,-0.405L0.052,-0.306C0.053,-0.279 0.055,-0.253 0.059,-0.228C0.064,-0.202 0.07,-0.177 0.08,-0.154C0.088,-0.13 0.1,-0.109 0.113,-0.089C0.127,-0.069 0.143,-0.052 0.162,-0.037C0.18,-0.022 0.201,-0.011 0.225,-0.003C0.249,0.006 0.276,0.01 0.305,0.01C0.339,0.01 0.37,0.004 0.398,-0.007C0.426,-0.017 0.45,-0.033 0.471,-0.053C0.491,-0.072 0.507,-0.096 0.52,-0.123C0.533,-0.151 0.541,-0.181 0.545,-0.214Z" style="fill-rule:nonzero;"/>
        </g>
        <g transform="matrix(960,0,0,960,20785.4,919)">
            <path d="M0.076,-0L0.24,-0C0.274,-0 0.306,-0.004 0.336,-0.012C0.365,-0.02 0.392,-0.031 0.415,-0.046C0.437,-0.06 0.457,-0.077 0.475,-0.097C0.493,-0.117 0.508,-0.139 0.52,-0.163C0.531,-0.187 0.54,-0.212 0.546,-0.24C0.552,-0.268 0.555,-0.298 0.555,-0.329L0.555,-0.381C0.554,-0.414 0.551,-0.444 0.545,-0.473C0.538,-0.502 0.529,-0.528 0.517,-0.552C0.504,-0.581 0.486,-0.606 0.464,-0.627C0.441,-0.649 0.416,-0.666 0.387,-0.68C0.366,-0.689 0.343,-0.697 0.319,-0.702C0.294,-0.708 0.268,-0.711 0.24,-0.711L0.076,-0.711L0.076,-0ZM0.167,-0.637L0.24,-0.637C0.263,-0.636 0.283,-0.634 0.302,-0.629C0.321,-0.624 0.338,-0.618 0.354,-0.609C0.375,-0.598 0.393,-0.583 0.408,-0.565C0.423,-0.546 0.435,-0.526 0.443,-0.503C0.45,-0.485 0.455,-0.466 0.459,-0.446C0.462,-0.426 0.464,-0.404 0.464,-0.382L0.464,-0.329C0.464,-0.307 0.462,-0.286 0.459,-0.266C0.456,-0.246 0.451,-0.228 0.444,-0.21C0.437,-0.189 0.427,-0.17 0.414,-0.153C0.401,-0.136 0.386,-0.122 0.368,-0.11C0.352,-0.098 0.333,-0.09 0.311,-0.083C0.29,-0.077 0.266,-0.074 0.24,-0.074L0.167,-0.074L0.167,-0.637Z" style="fill-rule:nonzero;"/>
        </g>
        <g transform="matrix(960,0,0,960,21361.5,919)">
            <path d="M0.476,-0.329L0.476,-0.405L0.179,-0.405L0.179,-0.634L0.521,-0.634L0.521,-0.711L0.089,-0.711L0.089,-0L0.525,-0L0.525,-0.077L0.179,-0.077L0.179,-0.329L0.476,-0.329Z" style="fill-rule:nonzero;"/>
        </g>
        <g transform="matrix(960,0,0,960,21937.6,919)">
            <path d="M0.48,-0.314L0.48,-0.391L0.185,-0.391L0.185,-0.634L0.53,-0.634L0.53,-0.711L0.093,-0.711L0.093,-0L0.185,-0L0.185,-0.314L0.48,-0.314Z" style="fill-rule:nonzero;"/>
        </g>
        <g transform="matrix(960,0,0,960,22513.7,919)">
            <path d="M0.545,-0.093L0.543,-0.354L0.313,-0.354L0.313,-0.278L0.458,-0.278L0.457,-0.118C0.449,-0.107 0.44,-0.099 0.429,-0.092C0.418,-0.085 0.406,-0.08 0.393,-0.076C0.38,-0.072 0.367,-0.07 0.354,-0.068C0.34,-0.067 0.327,-0.067 0.315,-0.067C0.293,-0.067 0.274,-0.071 0.257,-0.078C0.24,-0.086 0.226,-0.096 0.213,-0.108C0.2,-0.12 0.189,-0.135 0.18,-0.151C0.171,-0.167 0.163,-0.184 0.157,-0.203C0.151,-0.221 0.147,-0.24 0.144,-0.259C0.142,-0.278 0.14,-0.296 0.14,-0.314L0.14,-0.397C0.14,-0.415 0.141,-0.433 0.143,-0.452C0.145,-0.471 0.149,-0.49 0.154,-0.508C0.16,-0.526 0.166,-0.543 0.174,-0.56C0.182,-0.576 0.193,-0.591 0.205,-0.603C0.217,-0.615 0.232,-0.625 0.249,-0.633C0.265,-0.64 0.284,-0.644 0.306,-0.644C0.328,-0.644 0.348,-0.64 0.365,-0.633C0.382,-0.626 0.396,-0.616 0.409,-0.604C0.421,-0.592 0.431,-0.577 0.438,-0.559C0.445,-0.542 0.451,-0.523 0.455,-0.502L0.544,-0.502C0.541,-0.536 0.533,-0.566 0.521,-0.593C0.508,-0.619 0.491,-0.642 0.47,-0.662C0.449,-0.681 0.425,-0.695 0.397,-0.705C0.369,-0.716 0.338,-0.721 0.305,-0.721C0.275,-0.721 0.248,-0.716 0.224,-0.708C0.2,-0.699 0.179,-0.687 0.16,-0.672C0.14,-0.657 0.124,-0.639 0.11,-0.618C0.097,-0.597 0.085,-0.575 0.076,-0.551C0.067,-0.527 0.06,-0.502 0.056,-0.475C0.052,-0.449 0.049,-0.423 0.049,-0.396L0.049,-0.314C0.049,-0.287 0.052,-0.261 0.057,-0.235C0.062,-0.208 0.069,-0.183 0.08,-0.16C0.089,-0.136 0.102,-0.113 0.116,-0.093C0.131,-0.072 0.148,-0.055 0.167,-0.04C0.187,-0.024 0.209,-0.012 0.234,-0.004C0.258,0.005 0.285,0.009 0.314,0.01C0.343,0.01 0.371,0.007 0.397,0C0.424,-0.006 0.448,-0.017 0.471,-0.03C0.485,-0.038 0.497,-0.047 0.51,-0.058C0.522,-0.068 0.534,-0.08 0.545,-0.093Z" style="fill-rule:nonzero;"/>
        </g>
        <g transform="matrix(960,0,0,960,23089.8,919)">
            <path d="M0.531,-0L0.531,-0.711L0.445,-0.711L0.445,-0.405L0.154,-0.405L0.154,-0.711L0.069,-0.711L0.069,-0L0.154,-0L0.154,-0.329L0.445,-0.329L0.445,-0L0.531,-0Z" style="fill-rule:nonzero;"/>
        </g>
        <g transform="matrix(960,0,0,960,23665.8,919)">
            <path d="M0.085,-0.711L0.085,-0.632L0.251,-0.632L0.251,-0.078L0.085,-0.078L0.085,-0L0.515,-0L0.515,-0.078L0.344,-0.078L0.344,-0.632L0.515,-0.632L0.515,-0.711L0.085,-0.711Z" style="fill-rule:nonzero;"/>
        </g>
        <g transform="matrix(960,0,0,960,24241.9,919)">
            <path d="M0.418,-0.711L0.418,-0.216C0.418,-0.196 0.414,-0.177 0.408,-0.159C0.402,-0.141 0.393,-0.125 0.381,-0.111C0.369,-0.098 0.354,-0.087 0.337,-0.079C0.32,-0.071 0.301,-0.067 0.28,-0.067C0.259,-0.067 0.24,-0.07 0.223,-0.077C0.207,-0.084 0.192,-0.094 0.18,-0.106C0.168,-0.119 0.159,-0.133 0.152,-0.15C0.145,-0.167 0.141,-0.186 0.14,-0.206L0.048,-0.206C0.051,-0.173 0.058,-0.143 0.07,-0.116C0.082,-0.09 0.098,-0.067 0.119,-0.049C0.139,-0.03 0.162,-0.015 0.189,-0.005C0.216,0.005 0.247,0.01 0.28,0.01C0.313,0.01 0.343,0.004 0.371,-0.007C0.399,-0.018 0.423,-0.034 0.443,-0.054C0.464,-0.074 0.48,-0.098 0.492,-0.125C0.504,-0.153 0.51,-0.183 0.511,-0.216L0.511,-0.711L0.418,-0.711Z" style="fill-rule:nonzero;"/>
        </g>
        <g transform="matrix(960,0,0,960,24818,919)">
            <path d="M0.255,-0.33L0.47,-0L0.58,-0L0.315,-0.4L0.563,-0.711L0.454,-0.711L0.245,-0.45L0.176,-0.364L0.176,-0.711L0.084,-0.711L0.084,-0L0.176,-0L0.176,-0.24L0.255,-0.33Z" style="fill-rule:nonzero;"/>
        </g>
        <g transform="matrix(960,0,0,960,25394.1,919)">
            <path d="M0.187,-0.077L0.187,-0.711L0.097,-0.711L0.097,-0L0.535,-0L0.535,-0.077L0.187,-0.077Z" style="fill-rule:nonzero;"/>
        </g>
        <g transform="matrix(960,0,0,960,25970.2,919)">
            <path d="M0.184,-0.711L0.072,-0.711L0.072,-0L0.16,-0L0.16,-0.284L0.153,-0.57L0.273,-0.198L0.325,-0.198L0.457,-0.581L0.449,-0.284L0.449,-0L0.537,-0L0.537,-0.711L0.425,-0.711L0.3,-0.355L0.184,-0.711Z" style="fill-rule:nonzero;"/>
        </g>
        <g transform="matrix(960,0,0,960,26546.3,919)">
            <path d="M0.53,-0L0.53,-0.711L0.439,-0.711L0.438,-0.181L0.162,-0.711L0.07,-0.711L0.07,-0L0.161,-0L0.163,-0.531L0.438,-0L0.53,-0Z" style="fill-rule:nonzero;"/>
        </g>
        <g transform="matrix(960,0,0,960,27122.4,919)">
            <path d="M0.547,-0.314L0.547,-0.396C0.547,-0.421 0.545,-0.447 0.541,-0.473C0.537,-0.499 0.53,-0.524 0.522,-0.548C0.513,-0.572 0.502,-0.594 0.489,-0.615C0.476,-0.636 0.46,-0.655 0.442,-0.67C0.424,-0.686 0.403,-0.698 0.379,-0.707C0.355,-0.716 0.329,-0.721 0.299,-0.721C0.27,-0.721 0.244,-0.716 0.22,-0.707C0.196,-0.698 0.175,-0.686 0.157,-0.67C0.139,-0.654 0.123,-0.636 0.11,-0.615C0.097,-0.594 0.086,-0.571 0.078,-0.547C0.069,-0.523 0.062,-0.498 0.058,-0.472C0.054,-0.447 0.052,-0.421 0.052,-0.396L0.052,-0.314C0.052,-0.289 0.054,-0.264 0.059,-0.238C0.063,-0.212 0.069,-0.187 0.078,-0.163C0.087,-0.139 0.097,-0.116 0.111,-0.095C0.124,-0.074 0.14,-0.056 0.158,-0.041C0.176,-0.025 0.197,-0.013 0.221,-0.004C0.245,0.005 0.271,0.01 0.3,0.01C0.33,0.01 0.356,0.005 0.38,-0.004C0.403,-0.013 0.424,-0.025 0.442,-0.041C0.461,-0.056 0.476,-0.074 0.49,-0.095C0.503,-0.116 0.514,-0.139 0.522,-0.163C0.53,-0.187 0.537,-0.212 0.541,-0.238C0.545,-0.263 0.547,-0.289 0.547,-0.314ZM0.458,-0.396L0.458,-0.314C0.458,-0.298 0.457,-0.28 0.455,-0.261C0.453,-0.243 0.45,-0.224 0.445,-0.207C0.44,-0.188 0.434,-0.171 0.427,-0.155C0.419,-0.138 0.409,-0.124 0.398,-0.111C0.386,-0.099 0.372,-0.089 0.356,-0.081C0.34,-0.074 0.321,-0.07 0.3,-0.07C0.279,-0.07 0.261,-0.074 0.245,-0.081C0.229,-0.089 0.215,-0.099 0.203,-0.111C0.191,-0.124 0.182,-0.138 0.174,-0.155C0.166,-0.171 0.16,-0.189 0.155,-0.207C0.15,-0.225 0.146,-0.243 0.144,-0.262C0.142,-0.28 0.141,-0.298 0.141,-0.314L0.141,-0.396C0.141,-0.413 0.142,-0.431 0.144,-0.449C0.146,-0.467 0.15,-0.486 0.155,-0.504C0.159,-0.522 0.166,-0.539 0.173,-0.555C0.181,-0.572 0.191,-0.586 0.203,-0.599C0.214,-0.611 0.228,-0.621 0.244,-0.629C0.26,-0.636 0.278,-0.64 0.299,-0.64C0.32,-0.64 0.339,-0.636 0.355,-0.629C0.371,-0.622 0.385,-0.612 0.396,-0.6C0.408,-0.587 0.418,-0.572 0.426,-0.556C0.434,-0.539 0.44,-0.522 0.445,-0.504C0.449,-0.486 0.453,-0.468 0.455,-0.449C0.457,-0.431 0.458,-0.413 0.458,-0.396Z" style="fill-rule:nonzero;"/>
        </g>
        <g transform="matrix(960,0,0,960,27698.5,919)">
            <path d="M0.184,-0.285L0.324,-0.285C0.356,-0.285 0.386,-0.29 0.414,-0.3C0.443,-0.309 0.468,-0.323 0.489,-0.341C0.511,-0.359 0.528,-0.381 0.54,-0.407C0.553,-0.433 0.559,-0.463 0.559,-0.498C0.559,-0.532 0.553,-0.562 0.54,-0.588C0.528,-0.615 0.511,-0.637 0.489,-0.655C0.468,-0.673 0.443,-0.686 0.414,-0.696C0.386,-0.705 0.356,-0.71 0.324,-0.711L0.093,-0.711L0.093,-0L0.184,-0L0.184,-0.285ZM0.184,-0.359L0.184,-0.637L0.324,-0.637C0.345,-0.636 0.364,-0.633 0.382,-0.626C0.399,-0.62 0.415,-0.611 0.428,-0.599C0.44,-0.587 0.45,-0.572 0.458,-0.555C0.465,-0.537 0.469,-0.518 0.469,-0.497C0.469,-0.475 0.465,-0.456 0.458,-0.439C0.45,-0.422 0.44,-0.408 0.427,-0.396C0.414,-0.385 0.399,-0.376 0.381,-0.369C0.364,-0.363 0.345,-0.36 0.324,-0.359L0.184,-0.359Z" style="fill-rule:nonzero;"/>
        </g>
        <g transform="matrix(960,0,0,960,28274.6,919)">
            <path d="M0.554,-0.324L0.554,-0.386C0.553,-0.412 0.551,-0.439 0.547,-0.466C0.543,-0.492 0.536,-0.518 0.528,-0.543C0.519,-0.568 0.508,-0.591 0.494,-0.613C0.481,-0.634 0.465,-0.653 0.446,-0.669C0.427,-0.685 0.406,-0.698 0.382,-0.707C0.357,-0.716 0.33,-0.721 0.3,-0.721C0.27,-0.721 0.242,-0.716 0.218,-0.707C0.194,-0.698 0.172,-0.685 0.154,-0.669C0.135,-0.653 0.119,-0.634 0.105,-0.612C0.092,-0.59 0.081,-0.567 0.072,-0.542C0.063,-0.518 0.057,-0.492 0.053,-0.465C0.049,-0.439 0.046,-0.412 0.046,-0.386L0.046,-0.324C0.046,-0.298 0.049,-0.271 0.053,-0.245C0.057,-0.218 0.063,-0.193 0.072,-0.168C0.081,-0.143 0.092,-0.12 0.106,-0.098C0.12,-0.077 0.136,-0.058 0.155,-0.042C0.173,-0.026 0.195,-0.013 0.219,-0.004C0.243,0.005 0.27,0.01 0.3,0.01C0.312,0.01 0.323,0.009 0.334,0.008C0.345,0.006 0.356,0.004 0.366,0.001L0.506,0.12L0.568,0.061L0.446,-0.041C0.465,-0.057 0.481,-0.076 0.494,-0.097C0.508,-0.119 0.519,-0.142 0.528,-0.167C0.536,-0.192 0.543,-0.217 0.547,-0.244C0.551,-0.271 0.553,-0.297 0.554,-0.324ZM0.464,-0.387L0.464,-0.324C0.464,-0.306 0.462,-0.287 0.461,-0.268C0.459,-0.248 0.456,-0.229 0.451,-0.21C0.446,-0.192 0.44,-0.174 0.432,-0.157C0.424,-0.14 0.414,-0.125 0.402,-0.112C0.39,-0.099 0.376,-0.089 0.359,-0.081C0.342,-0.074 0.323,-0.07 0.3,-0.07C0.278,-0.07 0.259,-0.074 0.242,-0.081C0.225,-0.089 0.211,-0.099 0.199,-0.112C0.187,-0.125 0.177,-0.14 0.169,-0.157C0.161,-0.174 0.154,-0.192 0.149,-0.211C0.145,-0.23 0.141,-0.249 0.139,-0.268C0.137,-0.288 0.136,-0.306 0.136,-0.324L0.136,-0.387C0.136,-0.405 0.137,-0.423 0.139,-0.443C0.141,-0.462 0.145,-0.481 0.149,-0.5C0.154,-0.519 0.161,-0.536 0.169,-0.553C0.177,-0.57 0.187,-0.585 0.199,-0.598C0.211,-0.611 0.225,-0.621 0.242,-0.629C0.258,-0.636 0.278,-0.64 0.3,-0.64C0.322,-0.64 0.342,-0.636 0.359,-0.629C0.375,-0.621 0.39,-0.611 0.402,-0.599C0.414,-0.586 0.424,-0.571 0.432,-0.554C0.44,-0.537 0.446,-0.519 0.451,-0.5C0.456,-0.482 0.459,-0.462 0.461,-0.443C0.462,-0.424 0.464,-0.405 0.464,-0.387Z" style="fill-rule:nonzero;"/>
        </g>
        <g transform="matrix(960,0,0,960,28850.7,919)">
            <path d="M0.32,-0.29L0.46,-0L0.555,-0L0.556,-0.006L0.405,-0.31C0.424,-0.318 0.442,-0.328 0.458,-0.34C0.475,-0.352 0.489,-0.366 0.5,-0.382C0.512,-0.397 0.521,-0.415 0.528,-0.434C0.535,-0.453 0.538,-0.474 0.538,-0.498C0.538,-0.533 0.532,-0.565 0.519,-0.591C0.507,-0.618 0.49,-0.64 0.468,-0.657C0.446,-0.675 0.42,-0.688 0.391,-0.697C0.361,-0.706 0.33,-0.71 0.297,-0.711L0.088,-0.711L0.088,-0L0.178,-0L0.178,-0.29L0.32,-0.29ZM0.178,-0.364L0.178,-0.637L0.297,-0.637C0.319,-0.636 0.339,-0.633 0.357,-0.627C0.376,-0.622 0.391,-0.613 0.405,-0.602C0.418,-0.59 0.429,-0.575 0.436,-0.558C0.444,-0.541 0.447,-0.521 0.447,-0.499C0.447,-0.477 0.443,-0.458 0.436,-0.442C0.428,-0.425 0.417,-0.411 0.404,-0.4C0.39,-0.389 0.374,-0.38 0.356,-0.374C0.339,-0.368 0.319,-0.365 0.299,-0.364L0.178,-0.364Z" style="fill-rule:nonzero;"/>
        </g>
        <g transform="matrix(960,0,0,960,29426.8,919)">
            <path d="M0.457,-0.18C0.457,-0.16 0.453,-0.143 0.444,-0.129C0.436,-0.115 0.425,-0.103 0.412,-0.094C0.398,-0.085 0.383,-0.078 0.366,-0.073C0.349,-0.069 0.332,-0.067 0.314,-0.067C0.292,-0.067 0.271,-0.07 0.253,-0.076C0.234,-0.082 0.217,-0.091 0.203,-0.103C0.189,-0.115 0.177,-0.129 0.168,-0.146C0.159,-0.163 0.153,-0.183 0.15,-0.205L0.058,-0.205C0.059,-0.174 0.065,-0.147 0.078,-0.122C0.09,-0.097 0.107,-0.075 0.129,-0.057C0.153,-0.035 0.181,-0.019 0.214,-0.007C0.247,0.004 0.28,0.01 0.314,0.01C0.342,0.01 0.371,0.006 0.399,-0.002C0.427,-0.01 0.453,-0.022 0.475,-0.038C0.498,-0.054 0.516,-0.073 0.53,-0.097C0.544,-0.121 0.551,-0.149 0.551,-0.181C0.551,-0.212 0.545,-0.24 0.531,-0.264C0.518,-0.288 0.501,-0.309 0.479,-0.325C0.458,-0.343 0.434,-0.358 0.407,-0.369C0.381,-0.381 0.354,-0.391 0.328,-0.399C0.312,-0.404 0.295,-0.41 0.277,-0.416C0.259,-0.423 0.242,-0.431 0.227,-0.44C0.211,-0.45 0.199,-0.462 0.188,-0.476C0.178,-0.49 0.173,-0.508 0.173,-0.528C0.173,-0.547 0.177,-0.564 0.184,-0.578C0.192,-0.592 0.202,-0.604 0.215,-0.614C0.228,-0.624 0.243,-0.631 0.259,-0.636C0.275,-0.641 0.292,-0.644 0.31,-0.644C0.331,-0.644 0.35,-0.64 0.367,-0.634C0.385,-0.627 0.399,-0.618 0.412,-0.605C0.424,-0.593 0.434,-0.579 0.441,-0.562C0.449,-0.545 0.454,-0.527 0.457,-0.506L0.549,-0.506C0.549,-0.539 0.542,-0.568 0.528,-0.595C0.515,-0.621 0.497,-0.644 0.475,-0.662C0.453,-0.681 0.428,-0.695 0.399,-0.705C0.37,-0.716 0.34,-0.721 0.31,-0.721C0.282,-0.721 0.254,-0.716 0.226,-0.708C0.198,-0.699 0.174,-0.687 0.152,-0.67C0.13,-0.653 0.112,-0.633 0.099,-0.609C0.085,-0.585 0.079,-0.557 0.079,-0.527C0.079,-0.496 0.085,-0.47 0.099,-0.447C0.112,-0.424 0.13,-0.405 0.151,-0.388C0.173,-0.372 0.196,-0.358 0.222,-0.346C0.248,-0.335 0.273,-0.325 0.298,-0.317C0.316,-0.311 0.334,-0.305 0.352,-0.298C0.371,-0.292 0.388,-0.283 0.404,-0.273C0.419,-0.263 0.432,-0.25 0.442,-0.235C0.452,-0.22 0.457,-0.201 0.457,-0.18Z" style="fill-rule:nonzero;"/>
        </g>
        <g transform="matrix(960,0,0,960,30002.9,919)">
            <path d="M0.564,-0.634L0.564,-0.711L0.037,-0.711L0.037,-0.634L0.257,-0.634L0.257,-0L0.345,-0L0.345,-0.634L0.564,-0.634Z" style="fill-rule:nonzero;"/>
        </g>
        <g transform="matrix(960,0,0,960,30579,919)">
            <path d="M0.531,-0.711L0.444,-0.711L0.442,-0.229C0.442,-0.208 0.438,-0.188 0.432,-0.168C0.426,-0.149 0.417,-0.132 0.405,-0.117C0.393,-0.101 0.378,-0.089 0.361,-0.08C0.343,-0.071 0.323,-0.067 0.3,-0.067C0.277,-0.067 0.256,-0.071 0.239,-0.081C0.221,-0.09 0.206,-0.102 0.194,-0.117C0.182,-0.132 0.173,-0.149 0.167,-0.168C0.16,-0.188 0.157,-0.208 0.157,-0.229L0.155,-0.711L0.069,-0.711L0.068,-0.229C0.068,-0.196 0.074,-0.165 0.085,-0.136C0.097,-0.107 0.113,-0.082 0.133,-0.06C0.153,-0.038 0.177,-0.021 0.206,-0.009C0.234,0.004 0.265,0.01 0.3,0.01C0.334,0.01 0.365,0.003 0.393,-0.009C0.421,-0.022 0.446,-0.039 0.466,-0.061C0.487,-0.082 0.503,-0.107 0.515,-0.136C0.526,-0.165 0.532,-0.196 0.532,-0.229L0.531,-0.711Z" style="fill-rule:nonzero;"/>
        </g>
        <g transform="matrix(960,0,0,960,31155.1,919)">
            <path d="M0.259,-0L0.338,-0L0.562,-0.711L0.466,-0.711L0.309,-0.181L0.298,-0.146L0.288,-0.18L0.131,-0.711L0.035,-0.711L0.259,-0Z" style="fill-rule:nonzero;"/>
        </g>
        <g transform="matrix(960,0,0,960,31731.2,919)">
            <path d="M0.122,-0L0.215,-0L0.302,-0.505L0.307,-0.536L0.312,-0.506L0.398,-0L0.491,-0L0.577,-0.711L0.492,-0.711L0.44,-0.222L0.438,-0.192L0.432,-0.221L0.346,-0.711L0.267,-0.711L0.181,-0.222L0.176,-0.192L0.173,-0.221L0.122,-0.711L0.036,-0.711L0.122,-0Z" style="fill-rule:nonzero;"/>
        </g>
        <g transform="matrix(960,0,0,960,32307.2,919)">
            <path d="M0.305,-0.432L0.154,-0.711L0.048,-0.711L0.254,-0.358L0.042,-0L0.149,-0L0.307,-0.284L0.464,-0L0.57,-0L0.358,-0.358L0.565,-0.711L0.458,-0.711L0.305,-0.432Z" style="fill-rule:nonzero;"/>
        </g>
        <g transform="matrix(960,0,0,960,32883.3,919)">
            <path d="M0.294,-0.354L0.133,-0.711L0.03,-0.711L0.251,-0.265L0.252,-0L0.336,-0L0.338,-0.265L0.559,-0.711L0.457,-0.711L0.294,-0.354Z" style="fill-rule:nonzero;"/>
        </g>
        <g transform="matrix(960,0,0,960,33459.4,919)">
            <path d="M0.159,-0.077L0.514,-0.642L0.513,-0.711L0.062,-0.711L0.062,-0.634L0.41,-0.634L0.056,-0.07L0.057,-0L0.527,-0L0.527,-0.077L0.159,-0.077Z" style="fill-rule:nonzero;"/>
        </g>
        <g transform="matrix(960,0,0,960,34035.5,919)">
            <path d="M0.401,-0.738L0.401,-0.813L0.208,-0.813L0.208,0.152L0.401,0.152L0.401,0.078L0.293,0.078L0.293,-0.738L0.401,-0.738Z" style="fill-rule:nonzero;"/>
        </g>
        <g transform="matrix(960,0,0,960,34611.6,919)">
            <path d="M0.113,-0.711L0.41,0.061L0.491,0.061L0.194,-0.711L0.113,-0.711Z" style="fill-rule:nonzero;"/>
        </g>
        <g transform="matrix(960,0,0,960,35187.7,919)">
            <path d="M0.198,-0.813L0.198,-0.738L0.306,-0.738L0.306,0.078L0.198,0.078L0.198,0.152L0.392,0.152L0.392,-0.813L0.198,-0.813Z" style="fill-rule:nonzero;"/>
        </g>
        <g transform="matrix(960,0,0,960,35763.8,919)">
            <path d="M0.113,-0.331L0.197,-0.331L0.292,-0.568L0.299,-0.601L0.307,-0.568L0.403,-0.331L0.487,-0.331L0.331,-0.711L0.269,-0.711L0.113,-0.331Z" style="fill-rule:nonzero;"/>
        </g>
        <g transform="matrix(960,0,0,960,36339.9,919)">
            <rect x="0.076" y="-0" width="0.448" height="0.074" style="fill-rule:nonzero;"/>
        </g>
        <g transform="matrix(960,0,0,960,36916,919)">
            <path d="M0.397,-0.593L0.312,-0.723L0.203,-0.723L0.324,-0.593L0.397,-0.593Z" style="fill-rule:nonzero;"/>
        </g>
        <g transform="matrix(960,0,0,960,37492.1,919)">
            <path d="M0.432,-0L0.526,-0L0.526,-0.008C0.521,-0.022 0.516,-0.04 0.513,-0.059C0.509,-0.079 0.508,-0.098 0.508,-0.115L0.508,-0.361C0.508,-0.39 0.502,-0.416 0.492,-0.438C0.481,-0.461 0.466,-0.479 0.448,-0.494C0.429,-0.509 0.407,-0.52 0.381,-0.527C0.355,-0.534 0.327,-0.538 0.297,-0.538C0.264,-0.538 0.235,-0.534 0.209,-0.524C0.183,-0.515 0.161,-0.503 0.144,-0.489C0.125,-0.474 0.111,-0.457 0.102,-0.438C0.092,-0.42 0.087,-0.401 0.087,-0.382L0.178,-0.382C0.178,-0.393 0.18,-0.404 0.186,-0.414C0.191,-0.424 0.199,-0.433 0.208,-0.44C0.218,-0.448 0.23,-0.454 0.244,-0.458C0.259,-0.463 0.275,-0.465 0.292,-0.465C0.312,-0.465 0.329,-0.463 0.344,-0.458C0.36,-0.453 0.373,-0.446 0.384,-0.438C0.395,-0.428 0.403,-0.417 0.409,-0.405C0.415,-0.392 0.417,-0.378 0.417,-0.362L0.417,-0.32L0.319,-0.32C0.282,-0.32 0.249,-0.317 0.219,-0.31C0.189,-0.302 0.164,-0.292 0.143,-0.277C0.121,-0.263 0.105,-0.244 0.094,-0.223C0.082,-0.201 0.076,-0.175 0.076,-0.146C0.076,-0.124 0.08,-0.104 0.089,-0.085C0.098,-0.066 0.11,-0.049 0.126,-0.036C0.142,-0.022 0.161,-0.011 0.183,-0.002C0.206,0.006 0.231,0.01 0.259,0.01C0.277,0.01 0.293,0.008 0.308,0.004C0.323,0.001 0.338,-0.004 0.352,-0.01C0.365,-0.016 0.377,-0.024 0.388,-0.032C0.4,-0.04 0.41,-0.049 0.419,-0.058C0.42,-0.047 0.421,-0.036 0.424,-0.026C0.426,-0.015 0.429,-0.007 0.432,-0ZM0.272,-0.069C0.255,-0.069 0.239,-0.071 0.226,-0.076C0.213,-0.08 0.202,-0.087 0.193,-0.095C0.184,-0.103 0.177,-0.112 0.173,-0.123C0.169,-0.134 0.167,-0.146 0.167,-0.159C0.167,-0.173 0.169,-0.185 0.174,-0.196C0.179,-0.207 0.187,-0.216 0.196,-0.224C0.21,-0.235 0.228,-0.243 0.252,-0.248C0.275,-0.254 0.302,-0.256 0.333,-0.256L0.417,-0.256L0.417,-0.149C0.412,-0.139 0.405,-0.129 0.396,-0.119C0.387,-0.11 0.376,-0.101 0.364,-0.094C0.351,-0.086 0.337,-0.08 0.322,-0.076C0.306,-0.071 0.29,-0.069 0.272,-0.069Z" style="fill-rule:nonzero;"/>
        </g>
        <g transform="matrix(960,0,0,960,38068.2,919)">
            <path d="M0.533,-0.258L0.533,-0.269C0.533,-0.296 0.53,-0.323 0.526,-0.347C0.521,-0.372 0.515,-0.395 0.506,-0.416C0.497,-0.434 0.488,-0.45 0.477,-0.465C0.465,-0.48 0.453,-0.493 0.439,-0.503C0.423,-0.514 0.406,-0.523 0.387,-0.529C0.368,-0.535 0.347,-0.538 0.324,-0.538C0.306,-0.538 0.289,-0.536 0.273,-0.533C0.257,-0.529 0.243,-0.524 0.23,-0.517C0.22,-0.512 0.21,-0.505 0.201,-0.497C0.192,-0.49 0.183,-0.481 0.176,-0.472L0.176,-0.75L0.085,-0.75L0.085,-0L0.168,-0L0.173,-0.06C0.179,-0.053 0.185,-0.046 0.191,-0.04C0.198,-0.033 0.205,-0.028 0.212,-0.022C0.227,-0.012 0.244,-0.004 0.262,0.001C0.281,0.007 0.302,0.01 0.325,0.01C0.345,0.01 0.363,0.007 0.38,0.002C0.397,-0.002 0.413,-0.009 0.427,-0.018C0.447,-0.031 0.464,-0.047 0.478,-0.066C0.492,-0.086 0.504,-0.107 0.513,-0.132C0.519,-0.15 0.524,-0.17 0.528,-0.192C0.531,-0.213 0.533,-0.235 0.533,-0.258ZM0.442,-0.269L0.442,-0.258C0.442,-0.243 0.441,-0.227 0.439,-0.212C0.438,-0.197 0.434,-0.183 0.43,-0.17C0.425,-0.153 0.418,-0.138 0.409,-0.124C0.4,-0.11 0.389,-0.098 0.376,-0.089C0.367,-0.082 0.356,-0.076 0.343,-0.073C0.331,-0.069 0.317,-0.067 0.302,-0.067C0.287,-0.067 0.272,-0.069 0.259,-0.073C0.246,-0.077 0.235,-0.083 0.224,-0.09C0.214,-0.098 0.205,-0.107 0.197,-0.116C0.189,-0.126 0.182,-0.137 0.176,-0.149L0.176,-0.38C0.181,-0.392 0.188,-0.402 0.196,-0.412C0.204,-0.422 0.213,-0.431 0.224,-0.438C0.234,-0.446 0.245,-0.451 0.258,-0.455C0.271,-0.459 0.286,-0.461 0.301,-0.461C0.316,-0.461 0.329,-0.46 0.34,-0.457C0.352,-0.453 0.363,-0.449 0.372,-0.443C0.386,-0.435 0.397,-0.424 0.407,-0.409C0.416,-0.395 0.424,-0.379 0.43,-0.362C0.434,-0.348 0.437,-0.333 0.439,-0.317C0.441,-0.301 0.442,-0.285 0.442,-0.269Z" style="fill-rule:nonzero;"/>
        </g>
        <g transform="matrix(960,0,0,960,38644.3,919)">
            <path d="M0.31,-0.063C0.282,-0.063 0.258,-0.069 0.239,-0.08C0.22,-0.092 0.205,-0.106 0.193,-0.125C0.182,-0.142 0.173,-0.163 0.168,-0.185C0.163,-0.208 0.161,-0.231 0.161,-0.254L0.161,-0.274C0.161,-0.297 0.163,-0.32 0.168,-0.342C0.173,-0.365 0.182,-0.385 0.193,-0.403C0.205,-0.421 0.22,-0.436 0.24,-0.447C0.259,-0.458 0.282,-0.464 0.31,-0.464C0.328,-0.464 0.345,-0.461 0.361,-0.455C0.377,-0.448 0.39,-0.44 0.402,-0.429C0.413,-0.418 0.422,-0.406 0.429,-0.392C0.436,-0.378 0.439,-0.363 0.439,-0.347L0.525,-0.347C0.525,-0.373 0.52,-0.398 0.509,-0.422C0.498,-0.445 0.483,-0.466 0.464,-0.483C0.445,-0.5 0.422,-0.513 0.396,-0.523C0.37,-0.533 0.341,-0.538 0.31,-0.538C0.27,-0.538 0.235,-0.531 0.205,-0.517C0.175,-0.502 0.15,-0.483 0.13,-0.459C0.11,-0.435 0.095,-0.406 0.085,-0.375C0.075,-0.343 0.07,-0.309 0.07,-0.274L0.07,-0.254C0.07,-0.219 0.075,-0.185 0.085,-0.154C0.095,-0.122 0.11,-0.094 0.13,-0.07C0.15,-0.045 0.175,-0.026 0.205,-0.012C0.235,0.003 0.27,0.01 0.31,0.01C0.338,0.01 0.365,0.005 0.391,-0.005C0.416,-0.014 0.439,-0.027 0.459,-0.043C0.479,-0.059 0.495,-0.078 0.507,-0.099C0.518,-0.121 0.525,-0.143 0.525,-0.167L0.439,-0.167C0.439,-0.152 0.435,-0.138 0.428,-0.126C0.421,-0.113 0.411,-0.102 0.399,-0.093C0.387,-0.084 0.373,-0.076 0.358,-0.071C0.342,-0.066 0.326,-0.063 0.31,-0.063Z" style="fill-rule:nonzero;"/>
        </g>
        <g transform="matrix(960,0,0,960,39220.4,919)">
            <path d="M0.068,-0.269L0.068,-0.258C0.068,-0.221 0.073,-0.185 0.083,-0.153C0.093,-0.12 0.107,-0.091 0.125,-0.067C0.144,-0.043 0.166,-0.024 0.192,-0.011C0.218,0.003 0.246,0.01 0.278,0.01C0.311,0.01 0.339,0.004 0.364,-0.007C0.388,-0.018 0.409,-0.034 0.427,-0.056L0.431,-0L0.514,-0L0.514,-0.75L0.423,-0.75L0.423,-0.476C0.406,-0.496 0.386,-0.512 0.362,-0.522C0.338,-0.533 0.311,-0.538 0.279,-0.538C0.247,-0.538 0.218,-0.531 0.192,-0.518C0.166,-0.505 0.144,-0.486 0.125,-0.462C0.107,-0.439 0.093,-0.41 0.083,-0.377C0.073,-0.344 0.068,-0.308 0.068,-0.269ZM0.158,-0.258L0.158,-0.269C0.158,-0.294 0.161,-0.319 0.167,-0.342C0.172,-0.365 0.181,-0.386 0.192,-0.404C0.204,-0.421 0.219,-0.435 0.237,-0.446C0.255,-0.456 0.276,-0.461 0.302,-0.461C0.331,-0.461 0.356,-0.455 0.376,-0.441C0.396,-0.427 0.412,-0.409 0.423,-0.388L0.423,-0.143C0.412,-0.119 0.396,-0.101 0.376,-0.087C0.356,-0.074 0.331,-0.067 0.301,-0.067C0.276,-0.067 0.254,-0.072 0.236,-0.082C0.218,-0.093 0.204,-0.106 0.192,-0.124C0.181,-0.142 0.172,-0.162 0.167,-0.185C0.161,-0.208 0.158,-0.233 0.158,-0.258Z" style="fill-rule:nonzero;"/>
        </g>
        <g transform="matrix(960,0,0,960,39796.5,919)">
            <path d="M0.318,0.01C0.37,0.01 0.413,-0.001 0.448,-0.021C0.483,-0.042 0.509,-0.066 0.527,-0.092L0.472,-0.135C0.455,-0.114 0.434,-0.097 0.409,-0.083C0.384,-0.07 0.355,-0.064 0.323,-0.064C0.299,-0.064 0.277,-0.069 0.256,-0.078C0.236,-0.087 0.219,-0.099 0.205,-0.115C0.191,-0.13 0.18,-0.147 0.172,-0.167C0.164,-0.187 0.159,-0.209 0.156,-0.235L0.156,-0.238L0.534,-0.238L0.534,-0.279C0.534,-0.316 0.529,-0.35 0.52,-0.381C0.51,-0.413 0.496,-0.44 0.478,-0.464C0.459,-0.487 0.435,-0.505 0.406,-0.518C0.378,-0.531 0.345,-0.538 0.307,-0.538C0.276,-0.538 0.247,-0.532 0.218,-0.52C0.189,-0.507 0.164,-0.489 0.141,-0.466C0.118,-0.443 0.1,-0.414 0.086,-0.381C0.073,-0.347 0.066,-0.309 0.066,-0.266L0.066,-0.246C0.066,-0.209 0.072,-0.175 0.084,-0.144C0.097,-0.112 0.114,-0.085 0.136,-0.063C0.158,-0.04 0.185,-0.022 0.216,-0.009C0.247,0.003 0.281,0.01 0.318,0.01ZM0.307,-0.464C0.33,-0.464 0.35,-0.46 0.366,-0.451C0.383,-0.443 0.397,-0.432 0.408,-0.418C0.419,-0.404 0.428,-0.388 0.434,-0.369C0.44,-0.351 0.443,-0.333 0.443,-0.317L0.443,-0.313L0.159,-0.313C0.163,-0.337 0.169,-0.358 0.178,-0.377C0.187,-0.396 0.198,-0.412 0.211,-0.425C0.224,-0.438 0.239,-0.447 0.255,-0.454C0.271,-0.461 0.288,-0.464 0.307,-0.464Z" style="fill-rule:nonzero;"/>
        </g>
        <g transform="matrix(960,0,0,960,40372.6,919)">
            <path d="M0.22,-0L0.311,-0L0.311,-0.458L0.514,-0.458L0.514,-0.528L0.311,-0.528L0.311,-0.565C0.311,-0.588 0.313,-0.607 0.319,-0.624C0.325,-0.64 0.333,-0.654 0.344,-0.664C0.355,-0.674 0.368,-0.682 0.384,-0.687C0.399,-0.692 0.417,-0.694 0.438,-0.694C0.458,-0.694 0.477,-0.693 0.495,-0.689C0.513,-0.686 0.528,-0.682 0.542,-0.677L0.552,-0.752C0.544,-0.754 0.535,-0.756 0.527,-0.758C0.519,-0.76 0.511,-0.762 0.503,-0.763C0.491,-0.765 0.478,-0.767 0.465,-0.769C0.453,-0.77 0.44,-0.771 0.427,-0.771C0.396,-0.771 0.367,-0.767 0.342,-0.758C0.316,-0.749 0.295,-0.736 0.277,-0.719C0.259,-0.701 0.245,-0.68 0.235,-0.655C0.225,-0.629 0.22,-0.599 0.22,-0.565L0.22,-0.528L0.074,-0.528L0.074,-0.458L0.22,-0.458L0.22,-0Z" style="fill-rule:nonzero;"/>
        </g>
        <g transform="matrix(960,0,0,960,40948.7,919)">
            <path d="M0.068,-0.269L0.068,-0.258C0.068,-0.221 0.073,-0.185 0.083,-0.153C0.093,-0.12 0.107,-0.091 0.125,-0.067C0.143,-0.043 0.165,-0.024 0.191,-0.011C0.217,0.003 0.246,0.01 0.278,0.01C0.298,0.01 0.315,0.008 0.332,0.004C0.349,-0 0.364,-0.006 0.377,-0.014C0.386,-0.019 0.394,-0.024 0.402,-0.031C0.41,-0.037 0.417,-0.044 0.424,-0.052L0.424,-0.007C0.424,0.016 0.421,0.036 0.414,0.054C0.408,0.071 0.398,0.086 0.386,0.098C0.374,0.11 0.359,0.119 0.342,0.125C0.325,0.131 0.305,0.134 0.284,0.134C0.272,0.134 0.26,0.133 0.248,0.131C0.236,0.128 0.223,0.124 0.211,0.119C0.199,0.113 0.188,0.106 0.176,0.096C0.164,0.087 0.153,0.076 0.142,0.063L0.095,0.117C0.107,0.134 0.121,0.148 0.138,0.16C0.155,0.172 0.172,0.181 0.19,0.188C0.208,0.195 0.226,0.2 0.244,0.203C0.261,0.206 0.277,0.208 0.291,0.208C0.324,0.208 0.354,0.203 0.381,0.193C0.409,0.184 0.432,0.169 0.452,0.15C0.472,0.132 0.487,0.109 0.498,0.082C0.509,0.055 0.514,0.024 0.514,-0.011L0.514,-0.528L0.432,-0.528L0.428,-0.471C0.422,-0.479 0.415,-0.486 0.408,-0.492C0.401,-0.499 0.394,-0.504 0.386,-0.509C0.371,-0.519 0.355,-0.526 0.338,-0.531C0.32,-0.536 0.3,-0.538 0.279,-0.538C0.246,-0.538 0.217,-0.531 0.191,-0.518C0.165,-0.505 0.143,-0.486 0.125,-0.462C0.106,-0.439 0.092,-0.41 0.083,-0.377C0.073,-0.344 0.068,-0.308 0.068,-0.269ZM0.159,-0.258L0.159,-0.269C0.159,-0.294 0.161,-0.319 0.167,-0.342C0.172,-0.365 0.181,-0.386 0.192,-0.404C0.204,-0.421 0.219,-0.435 0.237,-0.446C0.255,-0.456 0.276,-0.461 0.302,-0.461C0.317,-0.461 0.33,-0.46 0.343,-0.456C0.355,-0.452 0.366,-0.447 0.376,-0.44C0.387,-0.434 0.396,-0.426 0.403,-0.417C0.411,-0.407 0.418,-0.397 0.424,-0.386L0.424,-0.144C0.418,-0.133 0.411,-0.122 0.403,-0.113C0.396,-0.103 0.387,-0.095 0.377,-0.088C0.367,-0.082 0.356,-0.076 0.343,-0.073C0.33,-0.069 0.316,-0.067 0.301,-0.067C0.276,-0.067 0.254,-0.072 0.236,-0.082C0.218,-0.093 0.204,-0.106 0.192,-0.124C0.181,-0.142 0.172,-0.162 0.167,-0.185C0.161,-0.208 0.159,-0.233 0.159,-0.258Z" style="fill-rule:nonzero;"/>
        </g>
        <g transform="matrix(960,0,0,960,41524.8,919)">
            <path d="M0.175,-0.45L0.175,-0.75L0.085,-0.75L0.085,-0L0.175,-0L0.175,-0.384C0.182,-0.394 0.189,-0.404 0.198,-0.412C0.206,-0.421 0.215,-0.429 0.225,-0.435C0.237,-0.444 0.25,-0.45 0.265,-0.455C0.28,-0.459 0.295,-0.461 0.312,-0.461C0.331,-0.462 0.349,-0.459 0.364,-0.453C0.38,-0.448 0.392,-0.439 0.402,-0.428C0.412,-0.417 0.419,-0.404 0.424,-0.388C0.429,-0.373 0.431,-0.354 0.431,-0.333L0.431,-0L0.521,-0L0.521,-0.333C0.521,-0.368 0.517,-0.399 0.509,-0.425C0.5,-0.45 0.488,-0.472 0.472,-0.489C0.456,-0.506 0.436,-0.518 0.414,-0.526C0.391,-0.534 0.366,-0.538 0.338,-0.538C0.317,-0.538 0.297,-0.535 0.279,-0.529C0.26,-0.523 0.243,-0.514 0.227,-0.503C0.217,-0.496 0.208,-0.488 0.199,-0.479C0.19,-0.47 0.182,-0.46 0.175,-0.45Z" style="fill-rule:nonzero;"/>
        </g>
        <g transform="matrix(960,0,0,960,42100.8,919)">
            <path d="M0.099,-0.528L0.099,-0.45L0.279,-0.45L0.279,-0.078L0.099,-0.078L0.099,-0L0.542,-0L0.542,-0.078L0.369,-0.078L0.369,-0.528L0.099,-0.528ZM0.267,-0.667C0.267,-0.652 0.272,-0.64 0.281,-0.63C0.289,-0.621 0.303,-0.616 0.321,-0.616C0.339,-0.616 0.353,-0.621 0.362,-0.63C0.371,-0.64 0.375,-0.652 0.375,-0.667C0.375,-0.675 0.374,-0.683 0.372,-0.689C0.369,-0.696 0.365,-0.702 0.36,-0.707C0.356,-0.711 0.35,-0.714 0.344,-0.717C0.337,-0.719 0.33,-0.72 0.321,-0.72C0.313,-0.72 0.305,-0.719 0.299,-0.717C0.292,-0.714 0.286,-0.711 0.282,-0.707C0.277,-0.702 0.273,-0.696 0.271,-0.689C0.268,-0.682 0.267,-0.675 0.267,-0.667Z" style="fill-rule:nonzero;"/>
        </g>
        <g transform="matrix(960,0,0,960,42676.9,919)">
            <path d="M0.146,-0.528L0.146,-0.45L0.322,-0.45L0.322,0.003C0.322,0.028 0.319,0.05 0.313,0.067C0.306,0.084 0.298,0.097 0.287,0.108C0.276,0.118 0.263,0.126 0.248,0.13C0.233,0.135 0.217,0.137 0.2,0.137C0.195,0.137 0.189,0.137 0.181,0.136C0.173,0.136 0.165,0.136 0.156,0.135C0.147,0.135 0.139,0.134 0.13,0.134C0.122,0.133 0.115,0.132 0.109,0.131L0.103,0.205C0.111,0.206 0.119,0.208 0.126,0.209C0.134,0.21 0.141,0.211 0.149,0.211C0.158,0.212 0.167,0.213 0.177,0.213C0.186,0.213 0.196,0.213 0.206,0.213C0.239,0.213 0.268,0.209 0.293,0.199C0.319,0.19 0.34,0.177 0.358,0.159C0.376,0.141 0.389,0.119 0.399,0.093C0.408,0.067 0.413,0.037 0.413,0.003L0.413,-0.528L0.146,-0.528ZM0.31,-0.667C0.31,-0.653 0.314,-0.641 0.323,-0.631C0.332,-0.621 0.345,-0.616 0.363,-0.616C0.382,-0.616 0.395,-0.621 0.404,-0.631C0.413,-0.641 0.418,-0.653 0.418,-0.667C0.418,-0.682 0.413,-0.695 0.404,-0.705C0.395,-0.715 0.382,-0.72 0.363,-0.72C0.345,-0.72 0.332,-0.715 0.323,-0.705C0.314,-0.695 0.31,-0.682 0.31,-0.667Z" style="fill-rule:nonzero;"/>
        </g>
        <g transform="matrix(960,0,0,960,43253,919)">
            <path d="M0.243,-0.247L0.437,-0L0.552,-0L0.305,-0.308L0.519,-0.528L0.409,-0.528L0.236,-0.354L0.177,-0.291L0.177,-0.75L0.086,-0.75L0.086,-0L0.177,-0L0.177,-0.183L0.243,-0.247Z" style="fill-rule:nonzero;"/>
        </g>
        <g transform="matrix(960,0,0,960,43829.1,919)">
            <path d="M0.099,-0.75L0.099,-0.671L0.279,-0.671L0.279,-0.078L0.099,-0.078L0.099,-0L0.542,-0L0.542,-0.078L0.369,-0.078L0.369,-0.75L0.099,-0.75Z" style="fill-rule:nonzero;"/>
        </g>
        <g transform="matrix(960,0,0,960,44405.2,919)">
            <path d="M0.126,-0.528L0.045,-0.528L0.045,-0L0.131,-0L0.131,-0.42C0.133,-0.426 0.136,-0.431 0.139,-0.435C0.142,-0.44 0.146,-0.444 0.15,-0.447C0.155,-0.452 0.162,-0.455 0.17,-0.458C0.178,-0.46 0.188,-0.461 0.198,-0.461C0.208,-0.461 0.217,-0.46 0.224,-0.458C0.231,-0.455 0.237,-0.451 0.242,-0.446C0.247,-0.441 0.251,-0.434 0.254,-0.425C0.256,-0.417 0.257,-0.407 0.257,-0.396L0.257,-0L0.343,-0L0.343,-0.405C0.344,-0.413 0.346,-0.421 0.349,-0.427C0.352,-0.434 0.356,-0.44 0.361,-0.445C0.367,-0.45 0.373,-0.454 0.381,-0.457C0.389,-0.46 0.398,-0.461 0.409,-0.461C0.419,-0.461 0.428,-0.46 0.435,-0.458C0.443,-0.455 0.449,-0.451 0.455,-0.446C0.459,-0.44 0.463,-0.433 0.466,-0.425C0.468,-0.416 0.47,-0.407 0.47,-0.396L0.47,-0L0.556,-0L0.556,-0.395C0.556,-0.42 0.553,-0.442 0.547,-0.461C0.541,-0.479 0.533,-0.495 0.521,-0.506C0.511,-0.517 0.499,-0.525 0.484,-0.53C0.47,-0.535 0.453,-0.538 0.435,-0.538C0.422,-0.538 0.409,-0.536 0.398,-0.533C0.387,-0.529 0.377,-0.525 0.368,-0.52C0.361,-0.515 0.354,-0.509 0.348,-0.502C0.341,-0.496 0.336,-0.489 0.332,-0.481C0.328,-0.49 0.324,-0.497 0.319,-0.503C0.314,-0.51 0.308,-0.515 0.302,-0.52C0.293,-0.526 0.283,-0.53 0.272,-0.533C0.261,-0.537 0.248,-0.538 0.234,-0.538C0.21,-0.538 0.189,-0.532 0.171,-0.522C0.154,-0.512 0.14,-0.497 0.129,-0.479L0.126,-0.528Z" style="fill-rule:nonzero;"/>
        </g>
        <g transform="matrix(960,0,0,960,44981.3,919)">
            <path d="M0.085,-0L0.175,-0L0.175,-0.379C0.181,-0.39 0.189,-0.401 0.197,-0.41C0.205,-0.42 0.214,-0.428 0.224,-0.435C0.236,-0.443 0.249,-0.45 0.264,-0.454C0.278,-0.459 0.293,-0.461 0.31,-0.461C0.329,-0.461 0.346,-0.459 0.361,-0.455C0.376,-0.45 0.389,-0.443 0.399,-0.433C0.409,-0.423 0.417,-0.409 0.422,-0.393C0.427,-0.377 0.43,-0.357 0.43,-0.333L0.43,-0L0.52,-0L0.52,-0.335C0.52,-0.371 0.516,-0.401 0.507,-0.427C0.498,-0.452 0.486,-0.473 0.47,-0.49C0.454,-0.506 0.435,-0.519 0.412,-0.526C0.39,-0.534 0.365,-0.538 0.337,-0.538C0.316,-0.538 0.297,-0.535 0.279,-0.529C0.26,-0.523 0.243,-0.515 0.228,-0.505C0.217,-0.498 0.207,-0.49 0.198,-0.481C0.189,-0.471 0.18,-0.461 0.172,-0.45L0.166,-0.528L0.085,-0.528L0.085,-0Z" style="fill-rule:nonzero;"/>
        </g>
        <g transform="matrix(960,0,0,960,45557.4,919)">
            <path d="M0.06,-0.269L0.06,-0.258C0.06,-0.22 0.065,-0.185 0.076,-0.152C0.087,-0.12 0.103,-0.091 0.124,-0.067C0.145,-0.043 0.17,-0.024 0.199,-0.011C0.229,0.003 0.263,0.01 0.3,0.01C0.337,0.01 0.371,0.003 0.4,-0.011C0.43,-0.024 0.455,-0.043 0.476,-0.067C0.497,-0.091 0.512,-0.12 0.523,-0.152C0.535,-0.185 0.54,-0.22 0.54,-0.258L0.54,-0.269C0.54,-0.307 0.535,-0.343 0.523,-0.375C0.512,-0.408 0.497,-0.436 0.476,-0.46C0.455,-0.485 0.43,-0.503 0.4,-0.517C0.37,-0.531 0.337,-0.538 0.299,-0.538C0.262,-0.538 0.229,-0.531 0.199,-0.517C0.17,-0.503 0.145,-0.485 0.124,-0.46C0.103,-0.436 0.087,-0.408 0.076,-0.375C0.065,-0.343 0.06,-0.307 0.06,-0.269ZM0.15,-0.258L0.15,-0.269C0.15,-0.295 0.153,-0.319 0.159,-0.343C0.165,-0.367 0.175,-0.387 0.188,-0.405C0.2,-0.423 0.215,-0.437 0.234,-0.448C0.252,-0.459 0.274,-0.464 0.299,-0.464C0.324,-0.464 0.346,-0.459 0.365,-0.448C0.384,-0.437 0.399,-0.423 0.412,-0.405C0.424,-0.387 0.434,-0.367 0.44,-0.343C0.447,-0.319 0.45,-0.295 0.45,-0.269L0.45,-0.258C0.45,-0.232 0.447,-0.207 0.44,-0.184C0.434,-0.16 0.425,-0.139 0.413,-0.122C0.4,-0.104 0.384,-0.09 0.365,-0.079C0.347,-0.069 0.325,-0.063 0.3,-0.063C0.275,-0.063 0.253,-0.069 0.234,-0.079C0.215,-0.09 0.2,-0.104 0.188,-0.122C0.175,-0.139 0.165,-0.16 0.159,-0.184C0.153,-0.207 0.15,-0.232 0.15,-0.258Z" style="fill-rule:nonzero;"/>
        </g>
        <g transform="matrix(960,0,0,960,46133.5,919)">
            <path d="M0.084,0.203L0.175,0.203L0.175,-0.051C0.181,-0.044 0.188,-0.037 0.196,-0.031C0.203,-0.025 0.211,-0.02 0.22,-0.015C0.234,-0.007 0.249,-0.001 0.267,0.003C0.284,0.008 0.303,0.01 0.323,0.01C0.356,0.01 0.386,0.003 0.412,-0.011C0.438,-0.024 0.459,-0.043 0.477,-0.067C0.495,-0.091 0.508,-0.12 0.517,-0.153C0.526,-0.185 0.531,-0.221 0.531,-0.258L0.531,-0.269C0.531,-0.308 0.526,-0.344 0.517,-0.377C0.508,-0.41 0.495,-0.439 0.477,-0.462C0.459,-0.486 0.438,-0.505 0.412,-0.518C0.386,-0.531 0.356,-0.538 0.322,-0.538C0.303,-0.538 0.285,-0.536 0.268,-0.532C0.251,-0.528 0.236,-0.522 0.222,-0.514C0.212,-0.509 0.203,-0.503 0.195,-0.495C0.186,-0.488 0.179,-0.48 0.171,-0.471L0.167,-0.528L0.084,-0.528L0.084,0.203ZM0.44,-0.269L0.44,-0.258C0.44,-0.233 0.438,-0.208 0.432,-0.185C0.426,-0.161 0.417,-0.14 0.406,-0.123C0.394,-0.105 0.379,-0.09 0.361,-0.08C0.343,-0.069 0.321,-0.064 0.296,-0.064C0.28,-0.064 0.266,-0.066 0.253,-0.07C0.24,-0.074 0.229,-0.079 0.218,-0.086C0.209,-0.092 0.201,-0.099 0.194,-0.107C0.187,-0.116 0.18,-0.125 0.175,-0.135L0.175,-0.389C0.181,-0.4 0.188,-0.41 0.196,-0.419C0.204,-0.429 0.214,-0.436 0.224,-0.442C0.234,-0.449 0.244,-0.453 0.256,-0.457C0.268,-0.46 0.281,-0.461 0.295,-0.461C0.32,-0.461 0.342,-0.456 0.36,-0.446C0.379,-0.435 0.394,-0.421 0.406,-0.404C0.417,-0.386 0.426,-0.365 0.432,-0.342C0.438,-0.319 0.44,-0.294 0.44,-0.269Z" style="fill-rule:nonzero;"/>
        </g>
        <g transform="matrix(960,0,0,960,46709.6,919)">
            <path d="M0.068,-0.269L0.068,-0.258C0.068,-0.221 0.073,-0.185 0.083,-0.153C0.092,-0.12 0.106,-0.091 0.125,-0.067C0.143,-0.043 0.165,-0.024 0.191,-0.011C0.217,0.003 0.247,0.01 0.281,0.01C0.298,0.01 0.314,0.008 0.329,0.005C0.344,0.002 0.358,-0.003 0.371,-0.009C0.381,-0.014 0.39,-0.019 0.399,-0.026C0.407,-0.032 0.416,-0.04 0.423,-0.048L0.423,0.203L0.514,0.203L0.514,-0.528L0.431,-0.528L0.427,-0.476C0.42,-0.484 0.413,-0.491 0.405,-0.498C0.397,-0.504 0.389,-0.51 0.38,-0.515C0.366,-0.522 0.351,-0.528 0.335,-0.532C0.318,-0.536 0.301,-0.538 0.282,-0.538C0.248,-0.538 0.218,-0.531 0.191,-0.518C0.165,-0.505 0.142,-0.486 0.124,-0.462C0.106,-0.439 0.092,-0.41 0.083,-0.377C0.073,-0.344 0.068,-0.308 0.068,-0.269ZM0.159,-0.258L0.159,-0.269C0.159,-0.294 0.162,-0.319 0.167,-0.342C0.173,-0.366 0.182,-0.387 0.194,-0.405C0.206,-0.423 0.221,-0.437 0.239,-0.448C0.257,-0.458 0.279,-0.464 0.304,-0.464C0.318,-0.464 0.331,-0.462 0.343,-0.459C0.354,-0.455 0.365,-0.451 0.375,-0.444C0.385,-0.438 0.394,-0.431 0.402,-0.423C0.41,-0.414 0.417,-0.405 0.423,-0.395L0.423,-0.134C0.417,-0.124 0.41,-0.114 0.401,-0.105C0.393,-0.096 0.384,-0.088 0.374,-0.082C0.364,-0.076 0.353,-0.072 0.341,-0.069C0.33,-0.066 0.317,-0.064 0.303,-0.064C0.278,-0.064 0.256,-0.069 0.238,-0.08C0.22,-0.09 0.205,-0.105 0.193,-0.123C0.182,-0.14 0.173,-0.161 0.167,-0.185C0.162,-0.208 0.159,-0.233 0.159,-0.258Z" style="fill-rule:nonzero;"/>
        </g>
        <g transform="matrix(960,0,0,960,47285.7,919)">
            <path d="M0.431,-0.538C0.393,-0.538 0.358,-0.53 0.328,-0.513C0.298,-0.496 0.272,-0.473 0.251,-0.444L0.25,-0.458L0.247,-0.528L0.161,-0.528L0.161,-0L0.251,-0L0.251,-0.339C0.257,-0.355 0.265,-0.37 0.274,-0.383C0.283,-0.396 0.293,-0.407 0.305,-0.417C0.319,-0.427 0.334,-0.435 0.352,-0.44C0.37,-0.446 0.39,-0.448 0.412,-0.448C0.429,-0.448 0.446,-0.447 0.462,-0.446C0.477,-0.444 0.494,-0.441 0.512,-0.437L0.524,-0.525C0.515,-0.529 0.501,-0.532 0.483,-0.535C0.465,-0.537 0.448,-0.538 0.431,-0.538Z" style="fill-rule:nonzero;"/>
        </g>
        <g transform="matrix(960,0,0,960,47861.8,919)">
            <path d="M0.436,-0.14C0.436,-0.132 0.434,-0.124 0.431,-0.116C0.428,-0.109 0.423,-0.102 0.417,-0.096C0.407,-0.086 0.393,-0.078 0.375,-0.072C0.357,-0.066 0.336,-0.063 0.312,-0.063C0.297,-0.063 0.281,-0.065 0.266,-0.068C0.25,-0.072 0.236,-0.077 0.223,-0.085C0.21,-0.093 0.199,-0.103 0.191,-0.116C0.182,-0.128 0.177,-0.144 0.176,-0.163L0.085,-0.163C0.085,-0.14 0.091,-0.118 0.101,-0.098C0.111,-0.077 0.126,-0.059 0.146,-0.043C0.165,-0.027 0.188,-0.014 0.216,-0.005C0.244,0.005 0.276,0.01 0.312,0.01C0.343,0.01 0.372,0.006 0.398,-0.001C0.425,-0.009 0.447,-0.02 0.466,-0.033C0.485,-0.047 0.5,-0.063 0.51,-0.083C0.521,-0.102 0.526,-0.123 0.526,-0.146C0.526,-0.168 0.522,-0.188 0.512,-0.204C0.503,-0.221 0.49,-0.235 0.472,-0.248C0.455,-0.26 0.433,-0.271 0.407,-0.28C0.382,-0.289 0.352,-0.297 0.32,-0.304C0.295,-0.309 0.275,-0.314 0.259,-0.319C0.242,-0.324 0.23,-0.33 0.22,-0.336C0.21,-0.343 0.204,-0.35 0.2,-0.358C0.196,-0.367 0.194,-0.376 0.194,-0.386C0.194,-0.396 0.196,-0.406 0.201,-0.416C0.206,-0.425 0.213,-0.433 0.223,-0.44C0.233,-0.448 0.245,-0.453 0.259,-0.458C0.274,-0.462 0.29,-0.464 0.31,-0.464C0.328,-0.464 0.345,-0.461 0.36,-0.456C0.374,-0.451 0.387,-0.444 0.397,-0.436C0.408,-0.427 0.416,-0.417 0.422,-0.406C0.428,-0.396 0.431,-0.384 0.431,-0.373L0.521,-0.373C0.521,-0.396 0.516,-0.418 0.506,-0.438C0.496,-0.458 0.482,-0.475 0.464,-0.49C0.446,-0.505 0.424,-0.517 0.397,-0.525C0.371,-0.534 0.342,-0.538 0.31,-0.538C0.279,-0.538 0.252,-0.534 0.226,-0.526C0.201,-0.518 0.179,-0.507 0.161,-0.493C0.143,-0.479 0.129,-0.462 0.119,-0.444C0.109,-0.425 0.104,-0.405 0.104,-0.383C0.104,-0.361 0.108,-0.342 0.118,-0.326C0.128,-0.309 0.142,-0.295 0.16,-0.283C0.177,-0.271 0.198,-0.26 0.223,-0.251C0.248,-0.243 0.276,-0.235 0.306,-0.229C0.331,-0.224 0.352,-0.219 0.368,-0.213C0.385,-0.207 0.398,-0.2 0.408,-0.193C0.418,-0.186 0.425,-0.178 0.43,-0.169C0.434,-0.161 0.436,-0.151 0.436,-0.14Z" style="fill-rule:nonzero;"/>
        </g>
        <g transform="matrix(960,0,0,960,48437.9,919)">
            <path d="M0.299,-0.656L0.208,-0.656L0.208,-0.528L0.069,-0.528L0.069,-0.458L0.208,-0.458L0.208,-0.171C0.208,-0.139 0.212,-0.111 0.221,-0.088C0.23,-0.065 0.241,-0.047 0.256,-0.032C0.271,-0.018 0.289,-0.007 0.309,-0C0.33,0.006 0.352,0.01 0.375,0.01C0.389,0.01 0.403,0.009 0.417,0.008C0.431,0.007 0.445,0.005 0.458,0.002C0.47,-0 0.482,-0.003 0.493,-0.007C0.503,-0.01 0.513,-0.014 0.52,-0.019L0.507,-0.083C0.502,-0.081 0.495,-0.08 0.486,-0.078C0.477,-0.076 0.468,-0.074 0.458,-0.073C0.448,-0.071 0.438,-0.07 0.428,-0.069C0.417,-0.067 0.407,-0.067 0.397,-0.067C0.384,-0.067 0.372,-0.069 0.36,-0.072C0.348,-0.075 0.337,-0.081 0.328,-0.089C0.319,-0.097 0.312,-0.107 0.307,-0.121C0.301,-0.134 0.299,-0.151 0.299,-0.171L0.299,-0.458L0.5,-0.458L0.5,-0.528L0.299,-0.528L0.299,-0.656Z" style="fill-rule:nonzero;"/>
        </g>
        <g transform="matrix(960,0,0,960,49014,919)">
            <path d="M0.433,-0L0.515,-0L0.515,-0.528L0.424,-0.528L0.424,-0.149C0.419,-0.138 0.413,-0.128 0.406,-0.118C0.399,-0.108 0.39,-0.1 0.38,-0.093C0.369,-0.085 0.355,-0.078 0.339,-0.073C0.323,-0.069 0.305,-0.066 0.285,-0.066C0.267,-0.066 0.252,-0.069 0.239,-0.073C0.226,-0.078 0.215,-0.086 0.206,-0.097C0.196,-0.108 0.19,-0.123 0.185,-0.142C0.181,-0.161 0.178,-0.185 0.178,-0.213L0.178,-0.528L0.088,-0.528L0.088,-0.214C0.088,-0.175 0.092,-0.141 0.101,-0.113C0.109,-0.085 0.122,-0.062 0.138,-0.043C0.154,-0.025 0.173,-0.012 0.195,-0.003C0.218,0.005 0.243,0.01 0.271,0.01C0.305,0.01 0.335,0.003 0.362,-0.012C0.388,-0.026 0.41,-0.047 0.428,-0.073L0.433,-0Z" style="fill-rule:nonzero;"/>
        </g>
        <g transform="matrix(960,0,0,960,49590.1,919)">
            <path d="M0.265,-0L0.334,-0L0.549,-0.528L0.457,-0.528L0.309,-0.13L0.3,-0.097L0.292,-0.13L0.141,-0.528L0.048,-0.528L0.265,-0Z" style="fill-rule:nonzero;"/>
        </g>
        <g transform="matrix(960,0,0,960,50166.2,919)">
            <path d="M0.136,-0L0.207,-0L0.289,-0.324L0.302,-0.406L0.315,-0.324L0.398,-0L0.469,-0L0.582,-0.528L0.501,-0.528L0.443,-0.191L0.43,-0.108L0.416,-0.191L0.332,-0.528L0.273,-0.528L0.189,-0.191L0.176,-0.116L0.165,-0.191L0.104,-0.528L0.023,-0.528L0.136,-0Z" style="fill-rule:nonzero;"/>
        </g>
        <g transform="matrix(960,0,0,960,50742.2,919)">
            <path d="M0.303,-0.333L0.164,-0.528L0.059,-0.528L0.256,-0.267L0.054,-0L0.159,-0L0.305,-0.201L0.451,-0L0.556,-0L0.354,-0.267L0.55,-0.528L0.444,-0.528L0.303,-0.333Z" style="fill-rule:nonzero;"/>
        </g>
        <g transform="matrix(960,0,0,960,51318.3,919)">
            <path d="M0.127,0.213C0.151,0.213 0.172,0.209 0.19,0.2C0.209,0.191 0.225,0.181 0.238,0.167C0.252,0.154 0.264,0.14 0.273,0.125C0.283,0.11 0.291,0.095 0.297,0.082L0.565,-0.528L0.464,-0.528L0.328,-0.186L0.303,-0.124L0.279,-0.188L0.134,-0.528L0.033,-0.528L0.261,-0.025L0.225,0.045C0.221,0.052 0.217,0.06 0.211,0.07C0.205,0.08 0.199,0.09 0.191,0.1C0.183,0.109 0.174,0.117 0.163,0.124C0.153,0.131 0.142,0.134 0.129,0.134C0.125,0.134 0.119,0.134 0.111,0.134C0.103,0.133 0.095,0.132 0.086,0.132L0.072,0.206C0.078,0.207 0.086,0.208 0.098,0.21C0.109,0.212 0.119,0.213 0.127,0.213Z" style="fill-rule:nonzero;"/>
        </g>
        <g transform="matrix(960,0,0,960,51894.4,919)">
            <path d="M0.193,-0.074L0.512,-0.464L0.512,-0.528L0.083,-0.528L0.083,-0.454L0.394,-0.454L0.078,-0.066L0.078,-0L0.53,-0L0.53,-0.074L0.193,-0.074Z" style="fill-rule:nonzero;"/>
        </g>
        <g transform="matrix(960,0,0,960,52470.5,919)">
            <path d="M0.478,0.179L0.488,0.123C0.468,0.122 0.451,0.116 0.438,0.106C0.425,0.096 0.414,0.082 0.406,0.066C0.398,0.05 0.392,0.032 0.389,0.012C0.386,-0.008 0.384,-0.028 0.384,-0.048L0.384,-0.131C0.384,-0.17 0.375,-0.204 0.357,-0.233C0.339,-0.263 0.311,-0.285 0.273,-0.3C0.311,-0.315 0.339,-0.337 0.357,-0.367C0.375,-0.396 0.384,-0.431 0.384,-0.47L0.384,-0.553C0.384,-0.573 0.385,-0.593 0.387,-0.613C0.389,-0.633 0.394,-0.651 0.401,-0.667C0.408,-0.683 0.418,-0.697 0.432,-0.707C0.446,-0.717 0.464,-0.723 0.488,-0.724L0.478,-0.78C0.445,-0.779 0.417,-0.772 0.394,-0.759C0.37,-0.745 0.352,-0.728 0.337,-0.708C0.322,-0.686 0.311,-0.661 0.304,-0.634C0.297,-0.606 0.293,-0.579 0.293,-0.553L0.293,-0.47C0.293,-0.423 0.282,-0.388 0.26,-0.367C0.238,-0.346 0.204,-0.336 0.158,-0.336L0.158,-0.265C0.204,-0.265 0.238,-0.254 0.26,-0.233C0.282,-0.212 0.293,-0.178 0.293,-0.131L0.293,-0.048C0.293,-0.022 0.297,0.004 0.305,0.031C0.312,0.057 0.323,0.081 0.338,0.103C0.353,0.125 0.372,0.143 0.396,0.157C0.419,0.17 0.446,0.178 0.478,0.179Z" style="fill-rule:nonzero;"/>
        </g>
        <g transform="matrix(960,0,0,960,53046.6,919)">
            <rect x="0.264" y="-0.711" width="0.073" height="0.905" style="fill-rule:nonzero;"/>
        </g>
        <g transform="matrix(960,0,0,960,53622.7,919)">
            <path d="M0.158,0.123L0.168,0.179C0.2,0.178 0.227,0.171 0.25,0.157C0.274,0.143 0.293,0.125 0.308,0.103C0.323,0.081 0.334,0.057 0.341,0.031C0.348,0.004 0.352,-0.022 0.352,-0.048L0.352,-0.131C0.352,-0.154 0.355,-0.173 0.36,-0.19C0.365,-0.207 0.373,-0.22 0.384,-0.231C0.395,-0.243 0.409,-0.251 0.427,-0.257C0.444,-0.262 0.464,-0.265 0.488,-0.265L0.488,-0.336C0.461,-0.336 0.438,-0.339 0.419,-0.346C0.4,-0.353 0.385,-0.365 0.375,-0.38C0.367,-0.391 0.361,-0.403 0.358,-0.418C0.354,-0.433 0.352,-0.45 0.352,-0.47L0.352,-0.553C0.352,-0.58 0.348,-0.608 0.341,-0.636C0.334,-0.664 0.322,-0.689 0.305,-0.711C0.291,-0.731 0.272,-0.747 0.249,-0.76C0.227,-0.772 0.2,-0.779 0.168,-0.78L0.158,-0.724C0.182,-0.723 0.2,-0.717 0.214,-0.707C0.228,-0.697 0.238,-0.683 0.245,-0.667C0.252,-0.651 0.256,-0.633 0.259,-0.613C0.261,-0.593 0.262,-0.573 0.262,-0.553L0.262,-0.47C0.262,-0.444 0.265,-0.421 0.273,-0.399C0.28,-0.378 0.292,-0.359 0.308,-0.342C0.316,-0.333 0.325,-0.326 0.336,-0.318C0.347,-0.311 0.359,-0.305 0.372,-0.3C0.359,-0.295 0.348,-0.289 0.337,-0.282C0.327,-0.275 0.317,-0.267 0.309,-0.259C0.293,-0.243 0.281,-0.224 0.273,-0.202C0.266,-0.18 0.262,-0.157 0.262,-0.131L0.262,-0.048C0.262,-0.028 0.26,-0.008 0.257,0.012C0.253,0.032 0.248,0.05 0.24,0.066C0.232,0.082 0.221,0.096 0.208,0.106C0.194,0.116 0.178,0.122 0.158,0.123Z" style="fill-rule:nonzero;"/>
        </g>
        <g transform="matrix(960,0,0,960,54198.8,919)">
            <path d="M0.576,-0.361L0.511,-0.37C0.511,-0.358 0.509,-0.346 0.504,-0.334C0.5,-0.323 0.494,-0.313 0.487,-0.305C0.48,-0.296 0.471,-0.289 0.461,-0.284C0.451,-0.278 0.441,-0.276 0.429,-0.276C0.419,-0.276 0.41,-0.277 0.401,-0.279C0.392,-0.281 0.383,-0.285 0.374,-0.29C0.367,-0.294 0.359,-0.299 0.351,-0.304C0.343,-0.31 0.335,-0.317 0.327,-0.324C0.314,-0.334 0.302,-0.344 0.289,-0.352C0.277,-0.361 0.265,-0.368 0.252,-0.374C0.239,-0.379 0.226,-0.384 0.213,-0.387C0.199,-0.39 0.185,-0.392 0.17,-0.392C0.148,-0.392 0.128,-0.387 0.11,-0.379C0.092,-0.37 0.077,-0.358 0.064,-0.344C0.051,-0.329 0.041,-0.312 0.034,-0.292C0.027,-0.273 0.023,-0.252 0.023,-0.231L0.089,-0.223C0.089,-0.235 0.091,-0.247 0.095,-0.258C0.099,-0.268 0.105,-0.278 0.112,-0.286C0.119,-0.294 0.128,-0.3 0.138,-0.305C0.148,-0.31 0.159,-0.312 0.17,-0.312C0.177,-0.312 0.185,-0.311 0.192,-0.31C0.199,-0.309 0.206,-0.307 0.212,-0.304C0.222,-0.3 0.232,-0.295 0.242,-0.288C0.252,-0.281 0.262,-0.273 0.273,-0.265C0.286,-0.254 0.299,-0.244 0.311,-0.235C0.323,-0.227 0.335,-0.22 0.348,-0.214C0.361,-0.208 0.373,-0.204 0.386,-0.201C0.4,-0.198 0.414,-0.196 0.429,-0.196C0.451,-0.196 0.471,-0.201 0.489,-0.21C0.507,-0.219 0.522,-0.231 0.535,-0.247C0.548,-0.262 0.558,-0.279 0.565,-0.299C0.573,-0.319 0.576,-0.34 0.576,-0.361Z" style="fill-rule:nonzero;"/>
        </g>
    </g>
</svg>
